  0
SECTION
  2
HEADER
  9
$ACADVER
  1
AC1014
  9
$HANDSEED
  5
FFFF
  9
$MEASUREMENT
 70
     1
  0
ENDSEC
  0
SECTION
  2
TABLES
  0
TABLE
  2
VPORT
  5
8
330
0
100
AcDbSymbolTable
 70
     4
  0
VPORT
  5
2E
330
8
100
AcDbSymbolTableRecord
100
AcDbViewportTableRecord
  2
*ACTIVE
 70
     0
 10
0.0
 20
0.0
 11
1.0
 21
1.0
 12
210.0
 22
148.5
 13
0.0
 23
0.0
 14
10.0
 24
10.0
 15
10.0
 25
10.0
 16
0.0
 26
0.0
 36
1.0
 17
0.0
 27
0.0
 37
0.0
 40
341.0
 41
1.24
 42
50.0
 43
0.0
 44
0.0
 50
0.0
 51
0.0
 71
     0
 72
   100
 73
     1
 74
     3
 75
     0
 76
     0
 77
     0
 78
     0
  0
ENDTAB
  0
TABLE
  2
LTYPE
  5
5
330
0
100
AcDbSymbolTable
 70
     1
  0
LTYPE
  5
14
330
5
100
AcDbSymbolTableRecord
100
AcDbLinetypeTableRecord
  2
BYBLOCK
 70
     0
  3

 72
    65
 73
     0
 40
0.0
  0
LTYPE
  5
15
330
5
100
AcDbSymbolTableRecord
100
AcDbLinetypeTableRecord
  2
BYLAYER
 70
     0
  3

 72
    65
 73
     0
 40
0.0
  0
LTYPE
  5
16
330
5
100
AcDbSymbolTableRecord
100
AcDbLinetypeTableRecord
  2
CONTINUOUS
 70
     0
  3
Solid line
 72
    65
 73
     0
 40
0.0
  0
ENDTAB
  0
TABLE
  2
LAYER
  5
2
100
AcDbSymbolTable
 70
2
  0
LAYER
  5
50
100
AcDbSymbolTableRecord
100
AcDbLayerTableRecord
  2
0
 70
0
  6
CONTINUOUS
  0
LAYER
  5
51
100
AcDbSymbolTableRecord
100
AcDbLayerTableRecord
  2
Layer_1
 70
0
  6
CONTINUOUS
  0
ENDTAB
  0
TABLE
  2
STYLE
  5
3
330
0
100
AcDbSymbolTable
 70
     1
  0
STYLE
  5
11
330
3
100
AcDbSymbolTableRecord
100
AcDbTextStyleTableRecord
  2
STANDARD
 70
     0
 40
0.0
 41
1.0
 50
0.0
 71
     0
 42
2.5
  3
txt
  4

  0
ENDTAB
  0
TABLE
  2
VIEW
  5
6
330
0
100
AcDbSymbolTable
 70
     0
  0
ENDTAB
  0
TABLE
  2
UCS
  5
7
330
0
100
AcDbSymbolTable
 70
     0
  0
ENDTAB
  0
TABLE
  2
APPID
  5
9
330
0
100
AcDbSymbolTable
 70
     2
  0
APPID
  5
12
330
9
100
AcDbSymbolTableRecord
100
AcDbRegAppTableRecord
  2
ACAD
 70
     0
  0
ENDTAB
  0
TABLE
  2
DIMSTYLE
  5
A
330
0
100
AcDbSymbolTable
 70
     1
  0
DIMSTYLE
105
27
330
A
100
AcDbSymbolTableRecord
100
AcDbDimStyleTableRecord
  2
ISO-25
 70
     0
  3

  4

  5

  6

  7

 40
1.0
 41
2.5
 42
0.625
 43
3.75
 44
1.25
 45
0.0
 46
0.0
 47
0.0
 48
0.0
140
2.5
141
2.5
142
0.0
143
0.03937007874016
144
1.0
145
0.0
146
1.0
147
0.625
 71
     0
 72
     0
 73
     0
 74
     0
 75
     0
 76
     0
 77
     1
 78
     8
170
     0
171
     3
172
     1
173
     0
174
     0
175
     0
176
     0
177
     0
178
     0
270
     2
271
     2
272
     2
273
     2
274
     3
340
11
275
     0
280
     0
281
     0
282
     0
283
     0
284
     8
285
     0
286
     0
287
     3
288
     0
  0
ENDTAB
  0
TABLE
  2
BLOCK_RECORD
  5
1
330
0
100
AcDbSymbolTable
 70
     1
  0
BLOCK_RECORD
  5
1F
330
1
100
AcDbSymbolTableRecord
100
AcDbBlockTableRecord
  2
*MODEL_SPACE
  0
BLOCK_RECORD
  5
1B
330
1
100
AcDbSymbolTableRecord
100
AcDbBlockTableRecord
  2
*PAPER_SPACE
  0
ENDTAB
  0
ENDSEC
  0
SECTION
  2
BLOCKS
  0
BLOCK
  5
20
330
1F
100
AcDbEntity
  8
0
100
AcDbBlockBegin
  2
*MODEL_SPACE
 70
     0
 10
0.0
 20
0.0
 30
0.0
  3
*MODEL_SPACE
  1

  0
ENDBLK
  5
21
330
1F
100
AcDbEntity
  8
0
100
AcDbBlockEnd
  0
BLOCK
  5
1C
330
1B
100
AcDbEntity
 67
     1
  8
0
100
AcDbBlockBegin
  2
*PAPER_SPACE
  1

  0
ENDBLK
  5
1D
330
1B
100
AcDbEntity
 67
     1
  8
0
100
AcDbBlockEnd
  0
ENDSEC
  0
SECTION
  2
ENTITIES
  0
SPLINE
  5
100
100
AcDbEntity
  8
Layer_1
 62
7
100
AcDbSpline
 70
8
 71
3
 72
8
 73
4
 74
0
 40
0
 40
0
 40
0
 40
0
 40
1
 40
1
 40
1
 40
1
 10
177.800000
 20
101.600000
 30
0.0
 10
177.800000
 20
81.390503
 30
0.0
 10
169.771809
 20
62.008735
 30
0.0
 10
155.481537
 20
47.718463
 30
0.0
  0
SPLINE
  5
101
100
AcDbEntity
  8
Layer_1
 62
7
100
AcDbSpline
 70
8
 71
3
 72
8
 73
4
 74
0
 40
0
 40
0
 40
0
 40
0
 40
1
 40
1
 40
1
 40
1
 10
155.481537
 20
47.718463
 30
0.0
 10
141.191265
 20
33.428191
 30
0.0
 10
121.809497
 20
25.400000
 30
0.0
 10
101.600000
 20
25.400000
 30
0.0
  0
SPLINE
  5
102
100
AcDbEntity
  8
Layer_1
 62
7
100
AcDbSpline
 70
8
 71
3
 72
8
 73
4
 74
0
 40
0
 40
0
 40
0
 40
0
 40
1
 40
1
 40
1
 40
1
 10
101.600000
 20
25.400000
 30
0.0
 10
81.390503
 20
25.400000
 30
0.0
 10
62.008735
 20
33.428191
 30
0.0
 10
47.718463
 20
47.718463
 30
0.0
  0
SPLINE
  5
103
100
AcDbEntity
  8
Layer_1
 62
7
100
AcDbSpline
 70
8
 71
3
 72
8
 73
4
 74
0
 40
0
 40
0
 40
0
 40
0
 40
1
 40
1
 40
1
 40
1
 10
47.718463
 20
47.718463
 30
0.0
 10
33.428191
 20
62.008735
 30
0.0
 10
25.400000
 20
81.390503
 30
0.0
 10
25.400000
 20
101.600000
 30
0.0
  0
SPLINE
  5
104
100
AcDbEntity
  8
Layer_1
 62
7
100
AcDbSpline
 70
8
 71
3
 72
8
 73
4
 74
0
 40
0
 40
0
 40
0
 40
0
 40
1
 40
1
 40
1
 40
1
 10
25.400000
 20
101.600000
 30
0.0
 10
25.400000
 20
121.809497
 30
0.0
 10
33.428191
 20
141.191265
 30
0.0
 10
47.718463
 20
155.481537
 30
0.0
  0
SPLINE
  5
105
100
AcDbEntity
  8
Layer_1
 62
7
100
AcDbSpline
 70
8
 71
3
 72
8
 73
4
 74
0
 40
0
 40
0
 40
0
 40
0
 40
1
 40
1
 40
1
 40
1
 10
47.718463
 20
155.481537
 30
0.0
 10
62.008735
 20
169.771809
 30
0.0
 10
81.390503
 20
177.800000
 30
0.0
 10
101.600000
 20
177.800000
 30
0.0
  0
SPLINE
  5
106
100
AcDbEntity
  8
Layer_1
 62
7
100
AcDbSpline
 70
8
 71
3
 72
8
 73
4
 74
0
 40
0
 40
0
 40
0
 40
0
 40
1
 40
1
 40
1
 40
1
 10
101.600000
 20
177.800000
 30
0.0
 10
121.809497
 20
177.800000
 30
0.0
 10
141.191265
 20
169.771809
 30
0.0
 10
155.481537
 20
155.481537
 30
0.0
  0
SPLINE
  5
107
100
AcDbEntity
  8
Layer_1
 62
7
100
AcDbSpline
 70
8
 71
3
 72
8
 73
4
 74
0
 40
0
 40
0
 40
0
 40
0
 40
1
 40
1
 40
1
 40
1
 10
155.481537
 20
155.481537
 30
0.0
 10
169.771809
 20
141.191265
 30
0.0
 10
177.800000
 20
121.809497
 30
0.0
 10
177.800000
 20
101.600000
 30
0.0
  0
LWPOLYLINE
  5
108
100
AcDbEntity
  8
Layer_1
 62
7
100
AcDbPolyline
 90
2
 70
1
 10
177.800000
 20
101.600000
 30
0.0
 10
177.800000
 20
101.600000
 30
0.0
  0
SPLINE
  5
109
100
AcDbEntity
  8
Layer_1
 62
7
100
AcDbSpline
 70
8
 71
3
 72
8
 73
4
 74
0
 40
0
 40
0
 40
0
 40
0
 40
1
 40
1
 40
1
 40
1
 10
16.933333
 20
177.800000
 30
0.0
 10
22.577778
 20
177.800000
 30
0.0
 10
22.577778
 20
177.800000
 30
0.0
 10
22.577778
 20
177.800000
 30
0.0
  0
SPLINE
  5
10a
100
AcDbEntity
  8
Layer_1
 62
7
100
AcDbSpline
 70
8
 71
3
 72
8
 73
4
 74
0
 40
0
 40
0
 40
0
 40
0
 40
1
 40
1
 40
1
 40
1
 10
16.933333
 20
25.400000
 30
0.0
 10
22.577778
 20
25.400000
 30
0.0
 10
22.577778
 20
25.400000
 30
0.0
 10
22.577778
 20
25.400000
 30
0.0
  0
SPLINE
  5
10b
100
AcDbEntity
  8
Layer_1
 62
7
100
AcDbSpline
 70
8
 71
3
 72
8
 73
4
 74
0
 40
0
 40
0
 40
0
 40
0
 40
1
 40
1
 40
1
 40
1
 10
19.755556
 20
25.400000
 30
0.0
 10
19.755556
 20
177.800000
 30
0.0
 10
19.755556
 20
177.800000
 30
0.0
 10
19.755556
 20
177.800000
 30
0.0
  0
SPLINE
  5
10c
100
AcDbEntity
  8
Layer_1
 62
7
100
AcDbSpline
 70
8
 71
3
 72
8
 73
4
 74
0
 40
0
 40
0
 40
0
 40
0
 40
1
 40
1
 40
1
 40
1
 10
25.400000
 20
22.577778
 30
0.0
 10
25.400000
 20
16.933333
 30
0.0
 10
25.400000
 20
16.933333
 30
0.0
 10
25.400000
 20
16.933333
 30
0.0
  0
SPLINE
  5
10d
100
AcDbEntity
  8
Layer_1
 62
7
100
AcDbSpline
 70
8
 71
3
 72
8
 73
4
 74
0
 40
0
 40
0
 40
0
 40
0
 40
1
 40
1
 40
1
 40
1
 10
177.800000
 20
22.577778
 30
0.0
 10
177.800000
 20
16.933333
 30
0.0
 10
177.800000
 20
16.933333
 30
0.0
 10
177.800000
 20
16.933333
 30
0.0
  0
SPLINE
  5
10e
100
AcDbEntity
  8
Layer_1
 62
7
100
AcDbSpline
 70
8
 71
3
 72
8
 73
4
 74
0
 40
0
 40
0
 40
0
 40
0
 40
1
 40
1
 40
1
 40
1
 10
25.400000
 20
19.755556
 30
0.0
 10
177.800000
 20
19.755556
 30
0.0
 10
177.800000
 20
19.755556
 30
0.0
 10
177.800000
 20
19.755556
 30
0.0
  0
SPLINE
  5
10f
100
AcDbEntity
  8
Layer_1
 62
7
100
AcDbSpline
 70
8
 71
3
 72
8
 73
4
 74
0
 40
0
 40
0
 40
0
 40
0
 40
1
 40
1
 40
1
 40
1
 10
25.400000
 20
177.800000
 30
0.0
 10
177.800000
 20
25.400000
 30
0.0
 10
177.800000
 20
25.400000
 30
0.0
 10
177.800000
 20
25.400000
 30
0.0
  0
LWPOLYLINE
  5
110
100
AcDbEntity
  8
Layer_1
 62
7
100
AcDbPolyline
 90
5
 70
1
 10
25.400000
 20
177.800000
 30
0.0
 10
177.800000
 20
177.800000
 30
0.0
 10
177.800000
 20
25.400000
 30
0.0
 10
25.400000
 20
25.400000
 30
0.0
 10
25.400000
 20
177.800000
 30
0.0
  0
LWPOLYLINE
  5
111
100
AcDbEntity
  8
Layer_1
 62
7
100
AcDbPolyline
 90
2
 70
0
 10
101.600000
 20
177.800000
 30
0.0
 10
101.600000
 20
101.600000
 30
0.0
  0
LWPOLYLINE
  5
112
100
AcDbEntity
  8
Layer_1
 62
7
100
AcDbPolyline
 90
3
 70
0
 10
177.800000
 20
101.600000
 30
0.0
 10
101.600000
 20
101.600000
 30
0.0
 10
101.600000
 20
25.400000
 30
0.0
  0
SPLINE
  5
113
100
AcDbEntity
  8
Layer_1
 62
7
100
AcDbSpline
 70
8
 71
3
 72
8
 73
4
 74
0
 40
0
 40
0
 40
0
 40
0
 40
1
 40
1
 40
1
 40
1
 10
127.000000
 20
177.800000
 30
0.0
 10
127.000000
 20
101.600000
 30
0.0
 10
127.000000
 20
101.600000
 30
0.0
 10
127.000000
 20
101.600000
 30
0.0
  0
SPLINE
  5
114
100
AcDbEntity
  8
Layer_1
 62
7
100
AcDbSpline
 70
8
 71
3
 72
8
 73
4
 74
0
 40
0
 40
0
 40
0
 40
0
 40
1
 40
1
 40
1
 40
1
 10
152.400000
 20
177.800000
 30
0.0
 10
152.400000
 20
101.600000
 30
0.0
 10
152.400000
 20
101.600000
 30
0.0
 10
152.400000
 20
101.600000
 30
0.0
  0
SPLINE
  5
115
100
AcDbEntity
  8
Layer_1
 62
7
100
AcDbSpline
 70
8
 71
3
 72
8
 73
4
 74
0
 40
0
 40
0
 40
0
 40
0
 40
1
 40
1
 40
1
 40
1
 10
101.600000
 20
127.000000
 30
0.0
 10
177.800000
 20
127.000000
 30
0.0
 10
177.800000
 20
127.000000
 30
0.0
 10
177.800000
 20
127.000000
 30
0.0
  0
LWPOLYLINE
  5
116
100
AcDbEntity
  8
Layer_1
 62
7
100
AcDbPolyline
 90
2
 70
0
 10
101.600000
 20
101.600000
 30
0.0
 10
25.400000
 20
101.600000
 30
0.0
  0
SPLINE
  5
117
100
AcDbEntity
  8
Layer_1
 62
7
100
AcDbSpline
 70
8
 71
3
 72
8
 73
4
 74
0
 40
0
 40
0
 40
0
 40
0
 40
1
 40
1
 40
1
 40
1
 10
50.800000
 20
177.800000
 30
0.0
 10
50.800000
 20
101.600000
 30
0.0
 10
50.800000
 20
101.600000
 30
0.0
 10
50.800000
 20
101.600000
 30
0.0
  0
SPLINE
  5
118
100
AcDbEntity
  8
Layer_1
 62
7
100
AcDbSpline
 70
8
 71
3
 72
8
 73
4
 74
0
 40
0
 40
0
 40
0
 40
0
 40
1
 40
1
 40
1
 40
1
 10
76.200000
 20
177.800000
 30
0.0
 10
76.200000
 20
101.600000
 30
0.0
 10
76.200000
 20
101.600000
 30
0.0
 10
76.200000
 20
101.600000
 30
0.0
  0
SPLINE
  5
119
100
AcDbEntity
  8
Layer_1
 62
7
100
AcDbSpline
 70
8
 71
3
 72
8
 73
4
 74
0
 40
0
 40
0
 40
0
 40
0
 40
1
 40
1
 40
1
 40
1
 10
25.400000
 20
127.000000
 30
0.0
 10
101.600000
 20
127.000000
 30
0.0
 10
101.600000
 20
127.000000
 30
0.0
 10
101.600000
 20
127.000000
 30
0.0
  0
LWPOLYLINE
  5
11a
100
AcDbEntity
  8
Layer_1
 62
7
100
AcDbPolyline
 90
2
 70
0
 10
101.600000
 20
152.400000
 30
0.0
 10
177.800000
 20
152.400000
 30
0.0
  0
LWPOLYLINE
  5
11b
100
AcDbEntity
  8
Layer_1
 62
7
100
AcDbPolyline
 90
2
 70
0
 10
25.400000
 20
152.400000
 30
0.0
 10
101.600000
 20
152.400000
 30
0.0
  0
LWPOLYLINE
  5
11c
100
AcDbEntity
  8
Layer_1
 62
7
100
AcDbPolyline
 90
2
 70
0
 10
76.200000
 20
152.400000
 30
0.0
 10
101.600000
 20
127.000000
 30
0.0
  0
LWPOLYLINE
  5
11d
100
AcDbEntity
  8
Layer_1
 62
7
100
AcDbPolyline
 90
2
 70
0
 10
101.600000
 20
152.400000
 30
0.0
 10
76.200000
 20
127.000000
 30
0.0
  0
LWPOLYLINE
  5
11e
100
AcDbEntity
  8
Layer_1
 62
7
100
AcDbPolyline
 90
2
 70
0
 10
50.800000
 20
121.355556
 30
0.0
 10
76.200000
 20
121.355556
 30
0.0
  0
LWPOLYLINE
  5
11f
100
AcDbEntity
  8
Layer_1
 62
7
100
AcDbPolyline
 90
2
 70
0
 10
76.200000
 20
115.711111
 30
0.0
 10
50.800000
 20
115.711111
 30
0.0
  0
LWPOLYLINE
  5
120
100
AcDbEntity
  8
Layer_1
 62
7
100
AcDbPolyline
 90
2
 70
0
 10
50.800000
 20
110.066667
 30
0.0
 10
76.200000
 20
110.066667
 30
0.0
  0
LWPOLYLINE
  5
121
100
AcDbEntity
  8
Layer_1
 62
7
100
AcDbPolyline
 90
2
 70
0
 10
56.444444
 20
127.000000
 30
0.0
 10
56.444444
 20
101.600000
 30
0.0
  0
LWPOLYLINE
  5
122
100
AcDbEntity
  8
Layer_1
 62
7
100
AcDbPolyline
 90
2
 70
0
 10
62.088889
 20
127.000000
 30
0.0
 10
62.088889
 20
101.600000
 30
0.0
  0
LWPOLYLINE
  5
123
100
AcDbEntity
  8
Layer_1
 62
7
100
AcDbPolyline
 90
2
 70
0
 10
67.733333
 20
127.000000
 30
0.0
 10
67.733333
 20
101.600000
 30
0.0
  0
LWPOLYLINE
  5
124
100
AcDbEntity
  8
Layer_1
 62
7
100
AcDbPolyline
 90
2
 70
0
 10
73.377778
 20
127.000000
 30
0.0
 10
73.377778
 20
101.600000
 30
0.0
  0
LWPOLYLINE
  5
125
100
AcDbEntity
  8
Layer_1
 62
7
100
AcDbPolyline
 90
2
 70
0
 10
70.555556
 20
127.000000
 30
0.0
 10
70.555556
 20
101.600000
 30
0.0
  0
LWPOLYLINE
  5
126
100
AcDbEntity
  8
Layer_1
 62
7
100
AcDbPolyline
 90
2
 70
0
 10
64.911111
 20
127.000000
 30
0.0
 10
64.911111
 20
101.600000
 30
0.0
  0
LWPOLYLINE
  5
127
100
AcDbEntity
  8
Layer_1
 62
7
100
AcDbPolyline
 90
2
 70
0
 10
59.266667
 20
127.000000
 30
0.0
 10
59.266667
 20
101.600000
 30
0.0
  0
SPLINE
  5
128
100
AcDbEntity
  8
Layer_1
 62
7
100
AcDbSpline
 70
8
 71
3
 72
8
 73
4
 74
0
 40
0
 40
0
 40
0
 40
0
 40
1
 40
1
 40
1
 40
1
 10
50.800000
 20
124.177778
 30
0.0
 10
53.622222
 20
124.177778
 30
0.0
 10
76.200000
 20
124.177778
 30
0.0
 10
76.200000
 20
124.177778
 30
0.0
  0
LWPOLYLINE
  5
129
100
AcDbEntity
  8
Layer_1
 62
7
100
AcDbPolyline
 90
2
 70
0
 10
53.622222
 20
127.000000
 30
0.0
 10
53.622222
 20
101.600000
 30
0.0
  0
SPLINE
  5
12a
100
AcDbEntity
  8
Layer_1
 62
7
100
AcDbSpline
 70
8
 71
3
 72
8
 73
4
 74
0
 40
0
 40
0
 40
0
 40
0
 40
1
 40
1
 40
1
 40
1
 10
50.800000
 20
112.888889
 30
0.0
 10
53.622222
 20
112.888889
 30
0.0
 10
76.200000
 20
112.888889
 30
0.0
 10
76.200000
 20
112.888889
 30
0.0
  0
LWPOLYLINE
  5
12b
100
AcDbEntity
  8
Layer_1
 62
7
100
AcDbPolyline
 90
2
 70
0
 10
50.800000
 20
118.533333
 30
0.0
 10
76.200000
 20
118.533333
 30
0.0
  0
SPLINE
  5
12c
100
AcDbEntity
  8
Layer_1
 62
7
100
AcDbSpline
 70
8
 71
3
 72
8
 73
4
 74
0
 40
0
 40
0
 40
0
 40
0
 40
1
 40
1
 40
1
 40
1
 10
50.800000
 20
104.422222
 30
0.0
 10
53.622222
 20
104.422222
 30
0.0
 10
76.200000
 20
104.422222
 30
0.0
 10
76.200000
 20
104.422222
 30
0.0
  0
LWPOLYLINE
  5
12d
100
AcDbEntity
  8
Layer_1
 62
7
100
AcDbPolyline
 90
2
 70
0
 10
50.800000
 20
107.244444
 30
0.0
 10
76.200000
 20
107.244444
 30
0.0
  0
LWPOLYLINE
  5
12e
100
AcDbEntity
  8
Layer_1
 62
7
100
AcDbPolyline
 90
2
 70
0
 10
76.200000
 20
101.600000
 30
0.0
 10
101.600000
 20
127.000000
 30
0.0
  0
LWPOLYLINE
  5
12f
100
AcDbEntity
  8
Layer_1
 62
7
100
AcDbPolyline
 90
2
 70
0
 10
76.200000
 20
104.422222
 30
0.0
 10
98.777778
 20
127.000000
 30
0.0
  0
LWPOLYLINE
  5
130
100
AcDbEntity
  8
Layer_1
 62
7
100
AcDbPolyline
 90
2
 70
0
 10
76.200000
 20
107.244444
 30
0.0
 10
95.955556
 20
127.000000
 30
0.0
  0
LWPOLYLINE
  5
131
100
AcDbEntity
  8
Layer_1
 62
7
100
AcDbPolyline
 90
2
 70
0
 10
76.200000
 20
110.066667
 30
0.0
 10
93.133333
 20
127.000000
 30
0.0
  0
LWPOLYLINE
  5
132
100
AcDbEntity
  8
Layer_1
 62
7
100
AcDbPolyline
 90
2
 70
0
 10
76.200000
 20
112.888889
 30
0.0
 10
90.311111
 20
127.000000
 30
0.0
  0
LWPOLYLINE
  5
133
100
AcDbEntity
  8
Layer_1
 62
7
100
AcDbPolyline
 90
2
 70
0
 10
76.200000
 20
115.711111
 30
0.0
 10
87.488889
 20
127.000000
 30
0.0
  0
LWPOLYLINE
  5
134
100
AcDbEntity
  8
Layer_1
 62
7
100
AcDbPolyline
 90
2
 70
0
 10
76.200000
 20
118.533333
 30
0.0
 10
84.666667
 20
127.000000
 30
0.0
  0
LWPOLYLINE
  5
135
100
AcDbEntity
  8
Layer_1
 62
7
100
AcDbPolyline
 90
2
 70
0
 10
76.200000
 20
121.355556
 30
0.0
 10
81.844444
 20
127.000000
 30
0.0
  0
SPLINE
  5
136
100
AcDbEntity
  8
Layer_1
 62
7
100
AcDbSpline
 70
8
 71
3
 72
8
 73
4
 74
0
 40
0
 40
0
 40
0
 40
0
 40
1
 40
1
 40
1
 40
1
 10
79.022222
 20
101.600000
 30
0.0
 10
81.844444
 20
104.422222
 30
0.0
 10
101.600000
 20
124.177778
 30
0.0
 10
101.600000
 20
124.177778
 30
0.0
  0
LWPOLYLINE
  5
137
100
AcDbEntity
  8
Layer_1
 62
7
100
AcDbPolyline
 90
2
 70
0
 10
76.200000
 20
124.177778
 30
0.0
 10
79.022222
 20
127.000000
 30
0.0
  0
LWPOLYLINE
  5
138
100
AcDbEntity
  8
Layer_1
 62
7
100
AcDbPolyline
 90
2
 70
0
 10
81.844444
 20
101.600000
 30
0.0
 10
101.600000
 20
121.355556
 30
0.0
  0
LWPOLYLINE
  5
139
100
AcDbEntity
  8
Layer_1
 62
7
100
AcDbPolyline
 90
2
 70
0
 10
84.666667
 20
101.600000
 30
0.0
 10
101.600000
 20
118.533333
 30
0.0
  0
LWPOLYLINE
  5
13a
100
AcDbEntity
  8
Layer_1
 62
7
100
AcDbPolyline
 90
2
 70
0
 10
87.488889
 20
101.600000
 30
0.0
 10
101.600000
 20
115.711111
 30
0.0
  0
LWPOLYLINE
  5
13b
100
AcDbEntity
  8
Layer_1
 62
7
100
AcDbPolyline
 90
2
 70
0
 10
90.311111
 20
101.600000
 30
0.0
 10
101.600000
 20
112.888889
 30
0.0
  0
LWPOLYLINE
  5
13c
100
AcDbEntity
  8
Layer_1
 62
7
100
AcDbPolyline
 90
2
 70
0
 10
93.133333
 20
101.600000
 30
0.0
 10
101.600000
 20
110.066667
 30
0.0
  0
LWPOLYLINE
  5
13d
100
AcDbEntity
  8
Layer_1
 62
7
100
AcDbPolyline
 90
2
 70
0
 10
95.955556
 20
101.600000
 30
0.0
 10
101.600000
 20
107.244444
 30
0.0
  0
LWPOLYLINE
  5
13e
100
AcDbEntity
  8
Layer_1
 62
7
100
AcDbPolyline
 90
2
 70
0
 10
98.777778
 20
101.600000
 30
0.0
 10
101.600000
 20
104.422222
 30
0.0
  0
LWPOLYLINE
  5
13f
100
AcDbEntity
  8
Layer_1
 62
7
100
AcDbPolyline
 90
2
 70
0
 10
76.200000
 20
146.755556
 30
0.0
 10
95.955556
 20
127.000000
 30
0.0
  0
LWPOLYLINE
  5
140
100
AcDbEntity
  8
Layer_1
 62
7
100
AcDbPolyline
 90
2
 70
0
 10
76.200000
 20
141.111111
 30
0.0
 10
90.311111
 20
127.000000
 30
0.0
  0
LWPOLYLINE
  5
141
100
AcDbEntity
  8
Layer_1
 62
7
100
AcDbPolyline
 90
2
 70
0
 10
76.200000
 20
135.466667
 30
0.0
 10
84.666667
 20
127.000000
 30
0.0
  0
LWPOLYLINE
  5
142
100
AcDbEntity
  8
Layer_1
 62
7
100
AcDbPolyline
 90
2
 70
0
 10
81.844444
 20
152.400000
 30
0.0
 10
101.600000
 20
132.644444
 30
0.0
  0
LWPOLYLINE
  5
143
100
AcDbEntity
  8
Layer_1
 62
7
100
AcDbPolyline
 90
2
 70
0
 10
87.488889
 20
152.400000
 30
0.0
 10
101.600000
 20
138.288889
 30
0.0
  0
LWPOLYLINE
  5
144
100
AcDbEntity
  8
Layer_1
 62
7
100
AcDbPolyline
 90
2
 70
0
 10
93.133333
 20
152.400000
 30
0.0
 10
101.600000
 20
143.933333
 30
0.0
  0
LWPOLYLINE
  5
145
100
AcDbEntity
  8
Layer_1
 62
7
100
AcDbPolyline
 90
2
 70
0
 10
76.200000
 20
132.644444
 30
0.0
 10
95.955556
 20
152.400000
 30
0.0
  0
LWPOLYLINE
  5
146
100
AcDbEntity
  8
Layer_1
 62
7
100
AcDbPolyline
 90
2
 70
0
 10
76.200000
 20
138.288889
 30
0.0
 10
90.311111
 20
152.400000
 30
0.0
  0
LWPOLYLINE
  5
147
100
AcDbEntity
  8
Layer_1
 62
7
100
AcDbPolyline
 90
2
 70
0
 10
76.200000
 20
143.933333
 30
0.0
 10
84.666667
 20
152.400000
 30
0.0
  0
LWPOLYLINE
  5
148
100
AcDbEntity
  8
Layer_1
 62
7
100
AcDbPolyline
 90
2
 70
0
 10
81.844444
 20
127.000000
 30
0.0
 10
101.600000
 20
146.755556
 30
0.0
  0
LWPOLYLINE
  5
149
100
AcDbEntity
  8
Layer_1
 62
7
100
AcDbPolyline
 90
2
 70
0
 10
87.488889
 20
127.000000
 30
0.0
 10
101.600000
 20
141.111111
 30
0.0
  0
SPLINE
  5
14a
100
AcDbEntity
  8
Layer_1
 62
7
100
AcDbSpline
 70
8
 71
3
 72
8
 73
4
 74
0
 40
0
 40
0
 40
0
 40
0
 40
1
 40
1
 40
1
 40
1
 10
127.000000
 20
114.300000
 30
0.0
 10
127.000000
 20
110.931751
 30
0.0
 10
125.661968
 20
107.701456
 30
0.0
 10
123.280256
 20
105.319744
 30
0.0
  0
SPLINE
  5
14b
100
AcDbEntity
  8
Layer_1
 62
7
100
AcDbSpline
 70
8
 71
3
 72
8
 73
4
 74
0
 40
0
 40
0
 40
0
 40
0
 40
1
 40
1
 40
1
 40
1
 10
123.280256
 20
105.319744
 30
0.0
 10
120.898544
 20
102.938032
 30
0.0
 10
117.668249
 20
101.600000
 30
0.0
 10
114.300000
 20
101.600000
 30
0.0
  0
SPLINE
  5
14c
100
AcDbEntity
  8
Layer_1
 62
7
100
AcDbSpline
 70
8
 71
3
 72
8
 73
4
 74
0
 40
0
 40
0
 40
0
 40
0
 40
1
 40
1
 40
1
 40
1
 10
114.300000
 20
101.600000
 30
0.0
 10
110.931751
 20
101.600000
 30
0.0
 10
107.701456
 20
102.938032
 30
0.0
 10
105.319744
 20
105.319744
 30
0.0
  0
SPLINE
  5
14d
100
AcDbEntity
  8
Layer_1
 62
7
100
AcDbSpline
 70
8
 71
3
 72
8
 73
4
 74
0
 40
0
 40
0
 40
0
 40
0
 40
1
 40
1
 40
1
 40
1
 10
105.319744
 20
105.319744
 30
0.0
 10
102.938032
 20
107.701456
 30
0.0
 10
101.600000
 20
110.931751
 30
0.0
 10
101.600000
 20
114.300000
 30
0.0
  0
SPLINE
  5
14e
100
AcDbEntity
  8
Layer_1
 62
7
100
AcDbSpline
 70
8
 71
3
 72
8
 73
4
 74
0
 40
0
 40
0
 40
0
 40
0
 40
1
 40
1
 40
1
 40
1
 10
101.600000
 20
114.300000
 30
0.0
 10
101.600000
 20
117.668249
 30
0.0
 10
102.938032
 20
120.898544
 30
0.0
 10
105.319744
 20
123.280256
 30
0.0
  0
SPLINE
  5
14f
100
AcDbEntity
  8
Layer_1
 62
7
100
AcDbSpline
 70
8
 71
3
 72
8
 73
4
 74
0
 40
0
 40
0
 40
0
 40
0
 40
1
 40
1
 40
1
 40
1
 10
105.319744
 20
123.280256
 30
0.0
 10
107.701456
 20
125.661968
 30
0.0
 10
110.931751
 20
127.000000
 30
0.0
 10
114.300000
 20
127.000000
 30
0.0
  0
SPLINE
  5
150
100
AcDbEntity
  8
Layer_1
 62
7
100
AcDbSpline
 70
8
 71
3
 72
8
 73
4
 74
0
 40
0
 40
0
 40
0
 40
0
 40
1
 40
1
 40
1
 40
1
 10
114.300000
 20
127.000000
 30
0.0
 10
117.668249
 20
127.000000
 30
0.0
 10
120.898544
 20
125.661968
 30
0.0
 10
123.280256
 20
123.280256
 30
0.0
  0
SPLINE
  5
151
100
AcDbEntity
  8
Layer_1
 62
7
100
AcDbSpline
 70
8
 71
3
 72
8
 73
4
 74
0
 40
0
 40
0
 40
0
 40
0
 40
1
 40
1
 40
1
 40
1
 10
123.280256
 20
123.280256
 30
0.0
 10
125.661968
 20
120.898544
 30
0.0
 10
127.000000
 20
117.668249
 30
0.0
 10
127.000000
 20
114.300000
 30
0.0
  0
LWPOLYLINE
  5
152
100
AcDbEntity
  8
Layer_1
 62
7
100
AcDbPolyline
 90
2
 70
0
 10
93.133333
 20
127.000000
 30
0.0
 10
101.600000
 20
135.466667
 30
0.0
  0
SPLINE
  5
153
100
AcDbEntity
  8
Layer_1
 62
7
100
AcDbSpline
 70
8
 71
3
 72
8
 73
4
 74
0
 40
0
 40
0
 40
0
 40
0
 40
1
 40
1
 40
1
 40
1
 10
98.777778
 20
76.200000
 30
0.0
 10
104.422222
 20
76.200000
 30
0.0
 10
104.422222
 20
76.200000
 30
0.0
 10
104.422222
 20
76.200000
 30
0.0
  0
LWPOLYLINE
  5
154
100
AcDbEntity
  8
Layer_1
 62
7
100
AcDbPolyline
 90
2
 70
1
 10
127.000000
 20
114.300000
 30
0.0
 10
127.000000
 20
114.300000
 30
0.0
  0
LWPOLYLINE
  5
155
100
AcDbEntity
  8
Layer_1
 62
7
100
AcDbPolyline
 90
2
 70
0
 10
98.777778
 20
50.800000
 30
0.0
 10
104.422222
 20
50.800000
 30
0.0
  0
LWPOLYLINE
  5
156
100
AcDbEntity
  8
Layer_1
 62
7
100
AcDbPolyline
 90
2
 70
0
 10
127.000000
 20
127.000000
 30
0.0
 10
152.400000
 20
152.400000
 30
0.0
  0
LWPOLYLINE
  5
157
100
AcDbEntity
  8
Layer_1
 62
7
100
AcDbPolyline
 90
2
 70
0
 10
152.400000
 20
127.000000
 30
0.0
 10
127.000000
 20
152.400000
 30
0.0
  0
LWPOLYLINE
  5
158
100
AcDbEntity
  8
Layer_1
 62
7
100
AcDbPolyline
 90
5
 70
1
 10
132.644444
 20
146.755556
 30
0.0
 10
146.755556
 20
146.755556
 30
0.0
 10
146.755556
 20
132.644444
 30
0.0
 10
132.644444
 20
132.644444
 30
0.0
 10
132.644444
 20
146.755556
 30
0.0
  0
LWPOLYLINE
  5
159
100
AcDbEntity
  8
Layer_1
 62
7
100
AcDbPolyline
 90
5
 70
1
 10
104.422222
 20
149.577778
 30
0.0
 10
124.177778
 20
149.577778
 30
0.0
 10
124.177778
 20
129.822222
 30
0.0
 10
104.422222
 20
129.822222
 30
0.0
 10
104.422222
 20
149.577778
 30
0.0
  0
LWPOLYLINE
  5
15a
100
AcDbEntity
  8
Layer_1
 62
7
100
AcDbPolyline
 90
5
 70
1
 10
107.244444
 20
146.755556
 30
0.0
 10
121.355556
 20
146.755556
 30
0.0
 10
121.355556
 20
132.644444
 30
0.0
 10
107.244444
 20
132.644444
 30
0.0
 10
107.244444
 20
146.755556
 30
0.0
  0
LWPOLYLINE
  5
15b
100
AcDbEntity
  8
Layer_1
 62
7
100
AcDbPolyline
 90
5
 70
1
 10
110.066667
 20
143.933333
 30
0.0
 10
118.533333
 20
143.933333
 30
0.0
 10
118.533333
 20
135.466667
 30
0.0
 10
110.066667
 20
135.466667
 30
0.0
 10
110.066667
 20
143.933333
 30
0.0
  0
LWPOLYLINE
  5
15c
100
AcDbEntity
  8
Layer_1
 62
7
100
AcDbPolyline
 90
4
 70
0
 10
112.888889
 20
141.111111
 30
0.0
 10
112.888889
 20
138.288889
 30
0.0
 10
115.711111
 20
138.288889
 30
0.0
 10
115.711111
 20
141.111111
 30
0.0
  0
SPLINE
  5
15d
100
AcDbEntity
  8
Layer_1
 62
7
100
AcDbSpline
 70
8
 71
3
 72
8
 73
4
 74
0
 40
0
 40
0
 40
0
 40
0
 40
1
 40
1
 40
1
 40
1
 10
152.400000
 20
114.300000
 30
0.0
 10
152.400000
 20
110.931751
 30
0.0
 10
151.061968
 20
107.701456
 30
0.0
 10
148.680256
 20
105.319744
 30
0.0
  0
SPLINE
  5
15e
100
AcDbEntity
  8
Layer_1
 62
7
100
AcDbSpline
 70
8
 71
3
 72
8
 73
4
 74
0
 40
0
 40
0
 40
0
 40
0
 40
1
 40
1
 40
1
 40
1
 10
148.680256
 20
105.319744
 30
0.0
 10
146.298544
 20
102.938032
 30
0.0
 10
143.068249
 20
101.600000
 30
0.0
 10
139.700000
 20
101.600000
 30
0.0
  0
SPLINE
  5
15f
100
AcDbEntity
  8
Layer_1
 62
7
100
AcDbSpline
 70
8
 71
3
 72
8
 73
4
 74
0
 40
0
 40
0
 40
0
 40
0
 40
1
 40
1
 40
1
 40
1
 10
139.700000
 20
101.600000
 30
0.0
 10
136.331751
 20
101.600000
 30
0.0
 10
133.101456
 20
102.938032
 30
0.0
 10
130.719744
 20
105.319744
 30
0.0
  0
SPLINE
  5
160
100
AcDbEntity
  8
Layer_1
 62
7
100
AcDbSpline
 70
8
 71
3
 72
8
 73
4
 74
0
 40
0
 40
0
 40
0
 40
0
 40
1
 40
1
 40
1
 40
1
 10
130.719744
 20
105.319744
 30
0.0
 10
128.338032
 20
107.701456
 30
0.0
 10
127.000000
 20
110.931751
 30
0.0
 10
127.000000
 20
114.300000
 30
0.0
  0
SPLINE
  5
161
100
AcDbEntity
  8
Layer_1
 62
7
100
AcDbSpline
 70
8
 71
3
 72
8
 73
4
 74
0
 40
0
 40
0
 40
0
 40
0
 40
1
 40
1
 40
1
 40
1
 10
127.000000
 20
114.300000
 30
0.0
 10
127.000000
 20
117.668249
 30
0.0
 10
128.338032
 20
120.898544
 30
0.0
 10
130.719744
 20
123.280256
 30
0.0
  0
SPLINE
  5
162
100
AcDbEntity
  8
Layer_1
 62
7
100
AcDbSpline
 70
8
 71
3
 72
8
 73
4
 74
0
 40
0
 40
0
 40
0
 40
0
 40
1
 40
1
 40
1
 40
1
 10
130.719744
 20
123.280256
 30
0.0
 10
133.101456
 20
125.661968
 30
0.0
 10
136.331751
 20
127.000000
 30
0.0
 10
139.700000
 20
127.000000
 30
0.0
  0
SPLINE
  5
163
100
AcDbEntity
  8
Layer_1
 62
7
100
AcDbSpline
 70
8
 71
3
 72
8
 73
4
 74
0
 40
0
 40
0
 40
0
 40
0
 40
1
 40
1
 40
1
 40
1
 10
139.700000
 20
127.000000
 30
0.0
 10
143.068249
 20
127.000000
 30
0.0
 10
146.298544
 20
125.661968
 30
0.0
 10
148.680256
 20
123.280256
 30
0.0
  0
SPLINE
  5
164
100
AcDbEntity
  8
Layer_1
 62
7
100
AcDbSpline
 70
8
 71
3
 72
8
 73
4
 74
0
 40
0
 40
0
 40
0
 40
0
 40
1
 40
1
 40
1
 40
1
 10
148.680256
 20
123.280256
 30
0.0
 10
151.061968
 20
120.898544
 30
0.0
 10
152.400000
 20
117.668249
 30
0.0
 10
152.400000
 20
114.300000
 30
0.0
  0
LWPOLYLINE
  5
165
100
AcDbEntity
  8
Layer_1
 62
7
100
AcDbPolyline
 90
2
 70
0
 10
112.888889
 20
141.111111
 30
0.0
 10
115.711111
 20
141.111111
 30
0.0
  0
SPLINE
  5
166
100
AcDbEntity
  8
Layer_1
 62
7
100
AcDbSpline
 70
8
 71
3
 72
8
 73
4
 74
0
 40
0
 40
0
 40
0
 40
0
 40
1
 40
1
 40
1
 40
1
 10
149.577778
 20
114.300000
 30
0.0
 10
149.577778
 20
111.680250
 30
0.0
 10
148.537086
 20
109.167799
 30
0.0
 10
146.684644
 20
107.315356
 30
0.0
  0
SPLINE
  5
167
100
AcDbEntity
  8
Layer_1
 62
7
100
AcDbSpline
 70
8
 71
3
 72
8
 73
4
 74
0
 40
0
 40
0
 40
0
 40
0
 40
1
 40
1
 40
1
 40
1
 10
146.684644
 20
107.315356
 30
0.0
 10
144.832201
 20
105.462914
 30
0.0
 10
142.319750
 20
104.422222
 30
0.0
 10
139.700000
 20
104.422222
 30
0.0
  0
SPLINE
  5
168
100
AcDbEntity
  8
Layer_1
 62
7
100
AcDbSpline
 70
8
 71
3
 72
8
 73
4
 74
0
 40
0
 40
0
 40
0
 40
0
 40
1
 40
1
 40
1
 40
1
 10
139.700000
 20
104.422222
 30
0.0
 10
137.080250
 20
104.422222
 30
0.0
 10
134.567799
 20
105.462914
 30
0.0
 10
132.715356
 20
107.315356
 30
0.0
  0
SPLINE
  5
169
100
AcDbEntity
  8
Layer_1
 62
7
100
AcDbSpline
 70
8
 71
3
 72
8
 73
4
 74
0
 40
0
 40
0
 40
0
 40
0
 40
1
 40
1
 40
1
 40
1
 10
132.715356
 20
107.315356
 30
0.0
 10
130.862914
 20
109.167799
 30
0.0
 10
129.822222
 20
111.680250
 30
0.0
 10
129.822222
 20
114.300000
 30
0.0
  0
SPLINE
  5
16a
100
AcDbEntity
  8
Layer_1
 62
7
100
AcDbSpline
 70
8
 71
3
 72
8
 73
4
 74
0
 40
0
 40
0
 40
0
 40
0
 40
1
 40
1
 40
1
 40
1
 10
129.822222
 20
114.300000
 30
0.0
 10
129.822222
 20
116.919750
 30
0.0
 10
130.862914
 20
119.432201
 30
0.0
 10
132.715356
 20
121.284644
 30
0.0
  0
SPLINE
  5
16b
100
AcDbEntity
  8
Layer_1
 62
7
100
AcDbSpline
 70
8
 71
3
 72
8
 73
4
 74
0
 40
0
 40
0
 40
0
 40
0
 40
1
 40
1
 40
1
 40
1
 10
132.715356
 20
121.284644
 30
0.0
 10
134.567799
 20
123.137086
 30
0.0
 10
137.080250
 20
124.177778
 30
0.0
 10
139.700000
 20
124.177778
 30
0.0
  0
SPLINE
  5
16c
100
AcDbEntity
  8
Layer_1
 62
7
100
AcDbSpline
 70
8
 71
3
 72
8
 73
4
 74
0
 40
0
 40
0
 40
0
 40
0
 40
1
 40
1
 40
1
 40
1
 10
139.700000
 20
124.177778
 30
0.0
 10
142.319750
 20
124.177778
 30
0.0
 10
144.832201
 20
123.137086
 30
0.0
 10
146.684644
 20
121.284644
 30
0.0
  0
SPLINE
  5
16d
100
AcDbEntity
  8
Layer_1
 62
7
100
AcDbSpline
 70
8
 71
3
 72
8
 73
4
 74
0
 40
0
 40
0
 40
0
 40
0
 40
1
 40
1
 40
1
 40
1
 10
146.684644
 20
121.284644
 30
0.0
 10
148.537086
 20
119.432201
 30
0.0
 10
149.577778
 20
116.919750
 30
0.0
 10
149.577778
 20
114.300000
 30
0.0
  0
LWPOLYLINE
  5
16e
100
AcDbEntity
  8
Layer_1
 62
7
100
AcDbPolyline
 90
2
 70
1
 10
152.400000
 20
114.300000
 30
0.0
 10
152.400000
 20
114.300000
 30
0.0
  0
SPLINE
  5
16f
100
AcDbEntity
  8
Layer_1
 62
7
100
AcDbSpline
 70
8
 71
3
 72
8
 73
4
 74
0
 40
0
 40
0
 40
0
 40
0
 40
1
 40
1
 40
1
 40
1
 10
146.755556
 20
114.300000
 30
0.0
 10
146.755556
 20
112.428750
 30
0.0
 10
146.012205
 20
110.634142
 30
0.0
 10
144.689031
 20
109.310969
 30
0.0
  0
SPLINE
  5
170
100
AcDbEntity
  8
Layer_1
 62
7
100
AcDbSpline
 70
8
 71
3
 72
8
 73
4
 74
0
 40
0
 40
0
 40
0
 40
0
 40
1
 40
1
 40
1
 40
1
 10
144.689031
 20
109.310969
 30
0.0
 10
143.365858
 20
107.987795
 30
0.0
 10
141.571250
 20
107.244444
 30
0.0
 10
139.700000
 20
107.244444
 30
0.0
  0
SPLINE
  5
171
100
AcDbEntity
  8
Layer_1
 62
7
100
AcDbSpline
 70
8
 71
3
 72
8
 73
4
 74
0
 40
0
 40
0
 40
0
 40
0
 40
1
 40
1
 40
1
 40
1
 10
139.700000
 20
107.244444
 30
0.0
 10
137.828750
 20
107.244444
 30
0.0
 10
136.034142
 20
107.987795
 30
0.0
 10
134.710969
 20
109.310969
 30
0.0
  0
SPLINE
  5
172
100
AcDbEntity
  8
Layer_1
 62
7
100
AcDbSpline
 70
8
 71
3
 72
8
 73
4
 74
0
 40
0
 40
0
 40
0
 40
0
 40
1
 40
1
 40
1
 40
1
 10
134.710969
 20
109.310969
 30
0.0
 10
133.387795
 20
110.634142
 30
0.0
 10
132.644444
 20
112.428750
 30
0.0
 10
132.644444
 20
114.300000
 30
0.0
  0
SPLINE
  5
173
100
AcDbEntity
  8
Layer_1
 62
7
100
AcDbSpline
 70
8
 71
3
 72
8
 73
4
 74
0
 40
0
 40
0
 40
0
 40
0
 40
1
 40
1
 40
1
 40
1
 10
132.644444
 20
114.300000
 30
0.0
 10
132.644444
 20
116.171250
 30
0.0
 10
133.387795
 20
117.965858
 30
0.0
 10
134.710969
 20
119.289031
 30
0.0
  0
SPLINE
  5
174
100
AcDbEntity
  8
Layer_1
 62
7
100
AcDbSpline
 70
8
 71
3
 72
8
 73
4
 74
0
 40
0
 40
0
 40
0
 40
0
 40
1
 40
1
 40
1
 40
1
 10
134.710969
 20
119.289031
 30
0.0
 10
136.034142
 20
120.612205
 30
0.0
 10
137.828750
 20
121.355556
 30
0.0
 10
139.700000
 20
121.355556
 30
0.0
  0
SPLINE
  5
175
100
AcDbEntity
  8
Layer_1
 62
7
100
AcDbSpline
 70
8
 71
3
 72
8
 73
4
 74
0
 40
0
 40
0
 40
0
 40
0
 40
1
 40
1
 40
1
 40
1
 10
139.700000
 20
121.355556
 30
0.0
 10
141.571250
 20
121.355556
 30
0.0
 10
143.365858
 20
120.612205
 30
0.0
 10
144.689031
 20
119.289031
 30
0.0
  0
SPLINE
  5
176
100
AcDbEntity
  8
Layer_1
 62
7
100
AcDbSpline
 70
8
 71
3
 72
8
 73
4
 74
0
 40
0
 40
0
 40
0
 40
0
 40
1
 40
1
 40
1
 40
1
 10
144.689031
 20
119.289031
 30
0.0
 10
146.012205
 20
117.965858
 30
0.0
 10
146.755556
 20
116.171250
 30
0.0
 10
146.755556
 20
114.300000
 30
0.0
  0
LWPOLYLINE
  5
177
100
AcDbEntity
  8
Layer_1
 62
7
100
AcDbPolyline
 90
2
 70
1
 10
149.577778
 20
114.300000
 30
0.0
 10
149.577778
 20
114.300000
 30
0.0
  0
SPLINE
  5
178
100
AcDbEntity
  8
Layer_1
 62
7
100
AcDbSpline
 70
8
 71
3
 72
8
 73
4
 74
0
 40
0
 40
0
 40
0
 40
0
 40
1
 40
1
 40
1
 40
1
 10
143.933333
 20
114.300000
 30
0.0
 10
143.933333
 20
113.177250
 30
0.0
 10
143.487323
 20
112.100485
 30
0.0
 10
142.693419
 20
111.306581
 30
0.0
  0
SPLINE
  5
179
100
AcDbEntity
  8
Layer_1
 62
7
100
AcDbSpline
 70
8
 71
3
 72
8
 73
4
 74
0
 40
0
 40
0
 40
0
 40
0
 40
1
 40
1
 40
1
 40
1
 10
142.693419
 20
111.306581
 30
0.0
 10
141.899515
 20
110.512677
 30
0.0
 10
140.822750
 20
110.066667
 30
0.0
 10
139.700000
 20
110.066667
 30
0.0
  0
SPLINE
  5
17a
100
AcDbEntity
  8
Layer_1
 62
7
100
AcDbSpline
 70
8
 71
3
 72
8
 73
4
 74
0
 40
0
 40
0
 40
0
 40
0
 40
1
 40
1
 40
1
 40
1
 10
139.700000
 20
110.066667
 30
0.0
 10
138.577250
 20
110.066667
 30
0.0
 10
137.500485
 20
110.512677
 30
0.0
 10
136.706581
 20
111.306581
 30
0.0
  0
SPLINE
  5
17b
100
AcDbEntity
  8
Layer_1
 62
7
100
AcDbSpline
 70
8
 71
3
 72
8
 73
4
 74
0
 40
0
 40
0
 40
0
 40
0
 40
1
 40
1
 40
1
 40
1
 10
136.706581
 20
111.306581
 30
0.0
 10
135.912677
 20
112.100485
 30
0.0
 10
135.466667
 20
113.177250
 30
0.0
 10
135.466667
 20
114.300000
 30
0.0
  0
SPLINE
  5
17c
100
AcDbEntity
  8
Layer_1
 62
7
100
AcDbSpline
 70
8
 71
3
 72
8
 73
4
 74
0
 40
0
 40
0
 40
0
 40
0
 40
1
 40
1
 40
1
 40
1
 10
135.466667
 20
114.300000
 30
0.0
 10
135.466667
 20
115.422750
 30
0.0
 10
135.912677
 20
116.499515
 30
0.0
 10
136.706581
 20
117.293419
 30
0.0
  0
SPLINE
  5
17d
100
AcDbEntity
  8
Layer_1
 62
7
100
AcDbSpline
 70
8
 71
3
 72
8
 73
4
 74
0
 40
0
 40
0
 40
0
 40
0
 40
1
 40
1
 40
1
 40
1
 10
136.706581
 20
117.293419
 30
0.0
 10
137.500485
 20
118.087323
 30
0.0
 10
138.577250
 20
118.533333
 30
0.0
 10
139.700000
 20
118.533333
 30
0.0
  0
SPLINE
  5
17e
100
AcDbEntity
  8
Layer_1
 62
7
100
AcDbSpline
 70
8
 71
3
 72
8
 73
4
 74
0
 40
0
 40
0
 40
0
 40
0
 40
1
 40
1
 40
1
 40
1
 10
139.700000
 20
118.533333
 30
0.0
 10
140.822750
 20
118.533333
 30
0.0
 10
141.899515
 20
118.087323
 30
0.0
 10
142.693419
 20
117.293419
 30
0.0
  0
SPLINE
  5
17f
100
AcDbEntity
  8
Layer_1
 62
7
100
AcDbSpline
 70
8
 71
3
 72
8
 73
4
 74
0
 40
0
 40
0
 40
0
 40
0
 40
1
 40
1
 40
1
 40
1
 10
142.693419
 20
117.293419
 30
0.0
 10
143.487323
 20
116.499515
 30
0.0
 10
143.933333
 20
115.422750
 30
0.0
 10
143.933333
 20
114.300000
 30
0.0
  0
LWPOLYLINE
  5
180
100
AcDbEntity
  8
Layer_1
 62
7
100
AcDbPolyline
 90
2
 70
1
 10
146.755556
 20
114.300000
 30
0.0
 10
146.755556
 20
114.300000
 30
0.0
  0
SPLINE
  5
181
100
AcDbEntity
  8
Layer_1
 62
7
100
AcDbSpline
 70
8
 71
3
 72
8
 73
4
 74
0
 40
0
 40
0
 40
0
 40
0
 40
1
 40
1
 40
1
 40
1
 10
141.111111
 20
114.300000
 30
0.0
 10
141.111111
 20
113.925750
 30
0.0
 10
140.962441
 20
113.566828
 30
0.0
 10
140.697806
 20
113.302194
 30
0.0
  0
SPLINE
  5
182
100
AcDbEntity
  8
Layer_1
 62
7
100
AcDbSpline
 70
8
 71
3
 72
8
 73
4
 74
0
 40
0
 40
0
 40
0
 40
0
 40
1
 40
1
 40
1
 40
1
 10
140.697806
 20
113.302194
 30
0.0
 10
140.433172
 20
113.037559
 30
0.0
 10
140.074250
 20
112.888889
 30
0.0
 10
139.700000
 20
112.888889
 30
0.0
  0
SPLINE
  5
183
100
AcDbEntity
  8
Layer_1
 62
7
100
AcDbSpline
 70
8
 71
3
 72
8
 73
4
 74
0
 40
0
 40
0
 40
0
 40
0
 40
1
 40
1
 40
1
 40
1
 10
139.700000
 20
112.888889
 30
0.0
 10
139.325750
 20
112.888889
 30
0.0
 10
138.966828
 20
113.037559
 30
0.0
 10
138.702194
 20
113.302194
 30
0.0
  0
SPLINE
  5
184
100
AcDbEntity
  8
Layer_1
 62
7
100
AcDbSpline
 70
8
 71
3
 72
8
 73
4
 74
0
 40
0
 40
0
 40
0
 40
0
 40
1
 40
1
 40
1
 40
1
 10
138.702194
 20
113.302194
 30
0.0
 10
138.437559
 20
113.566828
 30
0.0
 10
138.288889
 20
113.925750
 30
0.0
 10
138.288889
 20
114.300000
 30
0.0
  0
SPLINE
  5
185
100
AcDbEntity
  8
Layer_1
 62
7
100
AcDbSpline
 70
8
 71
3
 72
8
 73
4
 74
0
 40
0
 40
0
 40
0
 40
0
 40
1
 40
1
 40
1
 40
1
 10
138.288889
 20
114.300000
 30
0.0
 10
138.288889
 20
114.674250
 30
0.0
 10
138.437559
 20
115.033172
 30
0.0
 10
138.702194
 20
115.297806
 30
0.0
  0
SPLINE
  5
186
100
AcDbEntity
  8
Layer_1
 62
7
100
AcDbSpline
 70
8
 71
3
 72
8
 73
4
 74
0
 40
0
 40
0
 40
0
 40
0
 40
1
 40
1
 40
1
 40
1
 10
138.702194
 20
115.297806
 30
0.0
 10
138.966828
 20
115.562441
 30
0.0
 10
139.325750
 20
115.711111
 30
0.0
 10
139.700000
 20
115.711111
 30
0.0
  0
SPLINE
  5
187
100
AcDbEntity
  8
Layer_1
 62
7
100
AcDbSpline
 70
8
 71
3
 72
8
 73
4
 74
0
 40
0
 40
0
 40
0
 40
0
 40
1
 40
1
 40
1
 40
1
 10
139.700000
 20
115.711111
 30
0.0
 10
140.074250
 20
115.711111
 30
0.0
 10
140.433172
 20
115.562441
 30
0.0
 10
140.697806
 20
115.297806
 30
0.0
  0
SPLINE
  5
188
100
AcDbEntity
  8
Layer_1
 62
7
100
AcDbSpline
 70
8
 71
3
 72
8
 73
4
 74
0
 40
0
 40
0
 40
0
 40
0
 40
1
 40
1
 40
1
 40
1
 10
140.697806
 20
115.297806
 30
0.0
 10
140.962441
 20
115.033172
 30
0.0
 10
141.111111
 20
114.674250
 30
0.0
 10
141.111111
 20
114.300000
 30
0.0
  0
LWPOLYLINE
  5
189
100
AcDbEntity
  8
Layer_1
 62
7
100
AcDbPolyline
 90
2
 70
1
 10
143.933333
 20
114.300000
 30
0.0
 10
143.933333
 20
114.300000
 30
0.0
  0
LWPOLYLINE
  5
18a
100
AcDbEntity
  8
Layer_1
 62
7
100
AcDbPolyline
 90
2
 70
1
 10
141.111111
 20
114.300000
 30
0.0
 10
141.111111
 20
114.300000
 30
0.0
  0
ENDSEC
  0
SECTION
  2
OBJECTS
  0
DICTIONARY
  5
C
330
0
100
AcDbDictionary
  3
ACAD_GROUP
350
D
  3
ACAD_MLINESTYLE
350
17
  0
DICTIONARY
  5
D
330
C
100
AcDbDictionary
  0
DICTIONARY
  5
1A
330
C
100
AcDbDictionary
  0
DICTIONARY
  5
17
330
C
100
AcDbDictionary
  3
STANDARD
350
18
  0
DICTIONARY
  5
19
330
C
100
AcDbDictionary
  0
ENDSEC
  0
EOF
