solid powerSwitch
facet normal 0.0 -1.0 0.0
  outer loop
    vertex 45.0 0.0 15.999999999999998
    vertex 0.0 0.0 1.5999999999999999
    vertex 45.0 0.0 1.5999999999999999
  endloop
endfacet
facet normal 0.0 -1.0 0.0
  outer loop
    vertex 0.0 0.0 1.5999999999999999
    vertex 45.0 0.0 15.999999999999998
    vertex 0.0 0.0 15.999999999999998
  endloop
endfacet
facet normal -1.0 0.0 0.0
  outer loop
    vertex 0.0 25.999999999999996 15.999999999999998
    vertex 0.0 0.0 1.5999999999999999
    vertex 0.0 0.0 15.999999999999998
  endloop
endfacet
facet normal -1.0 0.0 0.0
  outer loop
    vertex 0.0 0.0 1.5999999999999999
    vertex 0.0 25.999999999999996 15.999999999999998
    vertex 0.0 25.999999999999996 1.5999999999999999
  endloop
endfacet
facet normal -0.0 1.0 -0.0
  outer loop
    vertex 0.0 25.999999999999996 15.999999999999998
    vertex 45.0 25.999999999999996 1.5999999999999999
    vertex 0.0 25.999999999999996 1.5999999999999999
  endloop
endfacet
facet normal -0.0 1.0 -0.0
  outer loop
    vertex 45.0 25.999999999999996 1.5999999999999999
    vertex 0.0 25.999999999999996 15.999999999999998
    vertex 45.0 25.999999999999996 15.999999999999998
  endloop
endfacet
facet normal 1.0 -0.0 -0.0
  outer loop
    vertex 45.0 25.999999999999996 1.5999999999999999
    vertex 45.0 0.0 15.999999999999998
    vertex 45.0 0.0 1.5999999999999999
  endloop
endfacet
facet normal 1.0 -0.0 -0.0
  outer loop
    vertex 45.0 0.0 15.999999999999998
    vertex 45.0 25.999999999999996 1.5999999999999999
    vertex 45.0 25.999999999999996 15.999999999999998
  endloop
endfacet
facet normal 0.0 0.0 1.0
  outer loop
    vertex 0.0 0.0 15.999999999999998
    vertex 3.9999999999999996 3.9999999999999996 15.999999999999998
    vertex 0.0 25.999999999999996 15.999999999999998
  endloop
endfacet
facet normal 0.0 0.0 1.0
  outer loop
    vertex 3.9999999999999996 3.9999999999999996 15.999999999999998
    vertex 0.0 0.0 15.999999999999998
    vertex 45.0 0.0 15.999999999999998
  endloop
endfacet
facet normal 0.0 0.0 1.0
  outer loop
    vertex 3.9999999999999996 3.9999999999999996 15.999999999999998
    vertex 45.0 0.0 15.999999999999998
    vertex 41.00000000000001 3.9999999999999996 15.999999999999998
  endloop
endfacet
facet normal 0.0 0.0 1.0
  outer loop
    vertex 41.00000000000001 3.9999999999999996 15.999999999999998
    vertex 45.0 0.0 15.999999999999998
    vertex 41.00000000000001 22.0 15.999999999999998
  endloop
endfacet
facet normal 0.0 0.0 1.0
  outer loop
    vertex 0.0 25.999999999999996 15.999999999999998
    vertex 3.9999999999999996 22.0 15.999999999999998
    vertex 45.0 25.999999999999996 15.999999999999998
  endloop
endfacet
facet normal 0.0 0.0 1.0
  outer loop
    vertex 3.9999999999999996 22.0 15.999999999999998
    vertex 0.0 25.999999999999996 15.999999999999998
    vertex 3.9999999999999996 3.9999999999999996 15.999999999999998
  endloop
endfacet
facet normal 0.0 0.0 1.0
  outer loop
    vertex 45.0 25.999999999999996 15.999999999999998
    vertex 3.9999999999999996 22.0 15.999999999999998
    vertex 41.00000000000001 22.0 15.999999999999998
  endloop
endfacet
facet normal 0.0 0.0 1.0
  outer loop
    vertex 45.0 25.999999999999996 15.999999999999998
    vertex 41.00000000000001 22.0 15.999999999999998
    vertex 45.0 0.0 15.999999999999998
  endloop
endfacet
facet normal 1.0 -0.0 0.0
  outer loop
    vertex 3.9999999999999996 4.0 4.999999999999999
    vertex 3.9999999999999996 22.0 15.999999999999998
    vertex 3.9999999999999996 3.9999999999999996 15.999999999999998
  endloop
endfacet
facet normal 1.0 -0.0 0.0
  outer loop
    vertex 3.9999999999999996 22.0 15.999999999999998
    vertex 3.9999999999999996 4.0 4.999999999999999
    vertex 3.9999999999999996 22.0 4.999999999999999
  endloop
endfacet
facet normal 0.0 -1.0 0.0
  outer loop
    vertex 41.00000000000001 22.0 15.999999999999998
    vertex 3.9999999999999996 22.0 4.999999999999999
    vertex 41.00000000000001 22.0 4.999999999999999
  endloop
endfacet
facet normal 0.0 -1.0 0.0
  outer loop
    vertex 3.9999999999999996 22.0 4.999999999999999
    vertex 41.00000000000001 22.0 15.999999999999998
    vertex 3.9999999999999996 22.0 15.999999999999998
  endloop
endfacet
facet normal -1.0 -0.0 -0.0
  outer loop
    vertex 41.00000000000001 22.0 15.999999999999998
    vertex 41.00000000000001 4.0 4.999999999999999
    vertex 41.00000000000001 3.9999999999999996 15.999999999999998
  endloop
endfacet
facet normal -1.0 -0.0 -0.0
  outer loop
    vertex 41.00000000000001 4.0 4.999999999999999
    vertex 41.00000000000001 22.0 15.999999999999998
    vertex 41.00000000000001 22.0 4.999999999999999
  endloop
endfacet
facet normal 0.0 1.0 0.0
  outer loop
    vertex 3.9999999999999996 3.9999999999999996 15.999999999999998
    vertex 41.00000000000001 4.0 4.999999999999999
    vertex 3.9999999999999996 4.0 4.999999999999999
  endloop
endfacet
facet normal 0.0 1.0 0.0
  outer loop
    vertex 41.00000000000001 4.0 4.999999999999999
    vertex 3.9999999999999996 3.9999999999999996 15.999999999999998
    vertex 41.00000000000001 3.9999999999999996 15.999999999999998
  endloop
endfacet
facet normal 1.2548850847338141e-15 6.077513971008399e-16 1.0
  outer loop
    vertex 9.999999999999998 5.750000000000001 4.000000000000031
    vertex 17.541541623179768 9.195241068695513 4.00000000000008
    vertex 9.999999999999998 20.25 4.000000000000025
  endloop
endfacet
facet normal 1.2548850847338141e-15 6.077513971008399e-16 1.0
  outer loop
    vertex 17.541541623179768 9.195241068695513 4.00000000000008
    vertex 9.999999999999998 5.750000000000001 4.000000000000031
    vertex 18.080582617584064 8.580582617584094 4.00000000000008
  endloop
endfacet
facet normal 1.2548850847338141e-15 6.077513971008399e-16 1.0
  outer loop
    vertex 18.080582617584064 8.580582617584094 4.00000000000008
    vertex 9.999999999999998 5.750000000000001 4.000000000000031
    vertex 18.695241068695477 8.041541623179794 4.00000000000008
  endloop
endfacet
facet normal 1.2548850847338141e-15 6.077513971008399e-16 1.0
  outer loop
    vertex 18.695241068695477 8.041541623179794 4.00000000000008
    vertex 9.999999999999998 5.750000000000001 4.000000000000031
    vertex 19.37499999999998 7.587341226347269 4.00000000000008
  endloop
endfacet
facet normal 1.2548850847338141e-15 6.077513971008399e-16 1.0
  outer loop
    vertex 19.37499999999998 7.587341226347269 4.00000000000008
    vertex 9.999999999999998 5.750000000000001 4.000000000000031
    vertex 20.108228547718166 7.225752921804467 4.00000000000008
  endloop
endfacet
facet normal 1.2548850847338141e-15 6.077513971008399e-16 1.0
  outer loop
    vertex 20.108228547718166 7.225752921804467 4.00000000000008
    vertex 9.999999999999998 5.750000000000001 4.000000000000031
    vertex 20.88238096810922 6.96296358569333 4.00000000000008
  endloop
endfacet
facet normal 1.2548850847338141e-15 6.077513971008399e-16 1.0
  outer loop
    vertex 20.88238096810922 6.96296358569333 4.00000000000008
    vertex 9.999999999999998 5.750000000000001 4.000000000000031
    vertex 21.68421129862465 6.803469616413688 4.00000000000008
  endloop
endfacet
facet normal 1.2548850847338141e-15 6.077513971008399e-16 1.0
  outer loop
    vertex 21.68421129862465 6.803469616413688 4.00000000000008
    vertex 9.999999999999998 5.750000000000001 4.000000000000031
    vertex 35.0 5.749999999999999 4.000000000000003
  endloop
endfacet
facet normal 1.2548850847338141e-15 6.077513971008399e-16 1.0
  outer loop
    vertex 9.999999999999998 20.25 4.000000000000025
    vertex 17.541541623179768 9.195241068695513 4.00000000000008
    vertex 17.08734122634725 9.875000000000018 4.00000000000008
  endloop
endfacet
facet normal 1.2548850847338141e-15 6.077513971008399e-16 1.0
  outer loop
    vertex 9.999999999999998 20.25 4.000000000000025
    vertex 17.08734122634725 9.875000000000018 4.00000000000008
    vertex 16.72575292180445 10.608228547718207 4.00000000000008
  endloop
endfacet
facet normal 1.2548850847338141e-15 6.077513971008399e-16 1.0
  outer loop
    vertex 9.999999999999998 20.25 4.000000000000025
    vertex 16.72575292180445 10.608228547718207 4.00000000000008
    vertex 16.46296358569332 11.382380968109262 4.00000000000008
  endloop
endfacet
facet normal 1.2548850847338141e-15 6.077513971008399e-16 1.0
  outer loop
    vertex 9.999999999999998 20.25 4.000000000000025
    vertex 16.46296358569332 11.382380968109262 4.00000000000008
    vertex 16.303469616413683 12.184211298624694 4.00000000000008
  endloop
endfacet
facet normal 1.2548850847338141e-15 6.077513971008399e-16 1.0
  outer loop
    vertex 9.999999999999998 20.25 4.000000000000025
    vertex 16.303469616413683 12.184211298624694 4.00000000000008
    vertex 16.25 13.000000000000016 4.00000000000008
  endloop
endfacet
facet normal 1.2548850847338141e-15 6.077513971008399e-16 1.0
  outer loop
    vertex 21.68421129862465 6.803469616413688 4.00000000000008
    vertex 35.0 5.749999999999999 4.000000000000003
    vertex 22.5 6.749999999999999 4.00000000000008
  endloop
endfacet
facet normal 1.2548850847338141e-15 6.077513971008399e-16 1.0
  outer loop
    vertex 22.5 6.749999999999999 4.00000000000008
    vertex 35.0 5.749999999999999 4.000000000000003
    vertex 23.315788701375325 6.803469616413684 4.00000000000008
  endloop
endfacet
facet normal 1.2548850847338141e-15 6.077513971008399e-16 1.0
  outer loop
    vertex 23.315788701375325 6.803469616413684 4.00000000000008
    vertex 35.0 5.749999999999999 4.000000000000003
    vertex 24.117619031890758 6.962963585693321 4.00000000000008
  endloop
endfacet
facet normal 1.2548850847338141e-15 6.077513971008399e-16 1.0
  outer loop
    vertex 24.117619031890758 6.962963585693321 4.00000000000008
    vertex 35.0 5.749999999999999 4.000000000000003
    vertex 24.891771452281812 7.225752921804456 4.00000000000008
  endloop
endfacet
facet normal 1.2548850847338141e-15 6.077513971008399e-16 1.0
  outer loop
    vertex 24.891771452281812 7.225752921804456 4.00000000000008
    vertex 35.0 5.749999999999999 4.000000000000003
    vertex 25.624999999999996 7.587341226347257 4.00000000000008
  endloop
endfacet
facet normal 1.2548850847338141e-15 6.077513971008399e-16 1.0
  outer loop
    vertex 25.624999999999996 7.587341226347257 4.00000000000008
    vertex 35.0 5.749999999999999 4.000000000000003
    vertex 26.30475893130451 8.041541623179778 4.00000000000008
  endloop
endfacet
facet normal 1.2548850847338141e-15 6.077513971008399e-16 1.0
  outer loop
    vertex 26.30475893130451 8.041541623179778 4.00000000000008
    vertex 35.0 5.749999999999999 4.000000000000003
    vertex 26.919417382415926 8.580582617584076 4.00000000000008
  endloop
endfacet
facet normal 1.2548850847338141e-15 6.077513971008399e-16 1.0
  outer loop
    vertex 26.919417382415926 8.580582617584076 4.00000000000008
    vertex 35.0 5.749999999999999 4.000000000000003
    vertex 27.45845837682022 9.195241068695495 4.00000000000008
  endloop
endfacet
facet normal 1.2548850847338141e-15 6.077513971008399e-16 1.0
  outer loop
    vertex 27.45845837682022 9.195241068695495 4.00000000000008
    vertex 35.0 5.749999999999999 4.000000000000003
    vertex 27.91265877365274 9.874999999999998 4.00000000000008
  endloop
endfacet
facet normal 1.2548850847338141e-15 6.077513971008399e-16 1.0
  outer loop
    vertex 27.91265877365274 9.874999999999998 4.00000000000008
    vertex 35.0 5.749999999999999 4.000000000000003
    vertex 28.27424707819554 10.608228547718188 4.00000000000008
  endloop
endfacet
facet normal 1.2548850847338141e-15 6.077513971008399e-16 1.0
  outer loop
    vertex 28.27424707819554 10.608228547718188 4.00000000000008
    vertex 35.0 5.749999999999999 4.000000000000003
    vertex 28.53703641430668 11.382380968109244 4.00000000000008
  endloop
endfacet
facet normal 1.2548850847338141e-15 6.077513971008399e-16 1.0
  outer loop
    vertex 28.53703641430668 11.382380968109244 4.00000000000008
    vertex 35.0 5.749999999999999 4.000000000000003
    vertex 28.696530383586314 12.184211298624678 4.00000000000008
  endloop
endfacet
facet normal 1.2548850847338141e-15 6.077513971008399e-16 1.0
  outer loop
    vertex 28.696530383586314 12.184211298624678 4.00000000000008
    vertex 35.0 5.749999999999999 4.000000000000003
    vertex 28.750000000000004 12.999999999999998 4.00000000000008
  endloop
endfacet
facet normal 1.2548850847338141e-15 6.077513971008399e-16 1.0
  outer loop
    vertex 9.999999999999998 20.25 4.000000000000025
    vertex 21.684211298624685 19.196530383586314 4.00000000000008
    vertex 35.0 20.25 3.999999999999991
  endloop
endfacet
facet normal 1.2548850847338141e-15 6.077513971008399e-16 1.0
  outer loop
    vertex 21.684211298624685 19.196530383586314 4.00000000000008
    vertex 9.999999999999998 20.25 4.000000000000025
    vertex 20.882380968109253 19.03703641430668 4.00000000000008
  endloop
endfacet
facet normal 1.2548850847338141e-15 6.077513971008399e-16 1.0
  outer loop
    vertex 20.882380968109253 19.03703641430668 4.00000000000008
    vertex 9.999999999999998 20.25 4.000000000000025
    vertex 20.1082285477182 18.774247078195543 4.00000000000008
  endloop
endfacet
facet normal 1.2548850847338141e-15 6.077513971008399e-16 1.0
  outer loop
    vertex 20.1082285477182 18.774247078195543 4.00000000000008
    vertex 9.999999999999998 20.25 4.000000000000025
    vertex 19.37500000000001 18.412658773652744 4.00000000000008
  endloop
endfacet
facet normal 1.2548850847338141e-15 6.077513971008399e-16 1.0
  outer loop
    vertex 19.37500000000001 18.412658773652744 4.00000000000008
    vertex 9.999999999999998 20.25 4.000000000000025
    vertex 18.695241068695506 17.958458376820225 4.00000000000008
  endloop
endfacet
facet normal 1.2548850847338141e-15 6.077513971008399e-16 1.0
  outer loop
    vertex 18.695241068695506 17.958458376820225 4.00000000000008
    vertex 9.999999999999998 20.25 4.000000000000025
    vertex 18.08058261758409 17.41941738241593 4.00000000000008
  endloop
endfacet
facet normal 1.2548850847338141e-15 6.077513971008399e-16 1.0
  outer loop
    vertex 18.08058261758409 17.41941738241593 4.00000000000008
    vertex 9.999999999999998 20.25 4.000000000000025
    vertex 17.54154162317979 16.804758931304512 4.00000000000008
  endloop
endfacet
facet normal 1.2548850847338141e-15 6.077513971008399e-16 1.0
  outer loop
    vertex 17.54154162317979 16.804758931304512 4.00000000000008
    vertex 9.999999999999998 20.25 4.000000000000025
    vertex 17.087341226347267 16.12500000000001 4.00000000000008
  endloop
endfacet
facet normal 1.2548850847338141e-15 6.077513971008399e-16 1.0
  outer loop
    vertex 17.087341226347267 16.12500000000001 4.00000000000008
    vertex 9.999999999999998 20.25 4.000000000000025
    vertex 16.725752921804464 15.391771452281823 4.00000000000008
  endloop
endfacet
facet normal 1.2548850847338141e-15 6.077513971008399e-16 1.0
  outer loop
    vertex 16.725752921804464 15.391771452281823 4.00000000000008
    vertex 9.999999999999998 20.25 4.000000000000025
    vertex 16.46296358569333 14.617619031890769 4.00000000000008
  endloop
endfacet
facet normal 1.2548850847338141e-15 6.077513971008399e-16 1.0
  outer loop
    vertex 16.46296358569333 14.617619031890769 4.00000000000008
    vertex 9.999999999999998 20.25 4.000000000000025
    vertex 16.303469616413686 13.815788701375338 4.00000000000008
  endloop
endfacet
facet normal 1.2548850847338141e-15 6.077513971008399e-16 1.0
  outer loop
    vertex 16.303469616413686 13.815788701375338 4.00000000000008
    vertex 9.999999999999998 20.25 4.000000000000025
    vertex 16.25 13.000000000000016 4.00000000000008
  endloop
endfacet
facet normal 1.2548850847338141e-15 6.077513971008399e-16 1.0
  outer loop
    vertex 35.0 20.25 3.999999999999991
    vertex 21.684211298624685 19.196530383586314 4.00000000000008
    vertex 22.500000000000007 19.25 4.00000000000008
  endloop
endfacet
facet normal 1.2548850847338141e-15 6.077513971008399e-16 1.0
  outer loop
    vertex 35.0 20.25 3.999999999999991
    vertex 22.500000000000007 19.25 4.00000000000008
    vertex 23.31578870137533 19.196530383586314 4.00000000000008
  endloop
endfacet
facet normal 1.2548850847338141e-15 6.077513971008399e-16 1.0
  outer loop
    vertex 35.0 20.25 3.999999999999991
    vertex 23.31578870137533 19.196530383586314 4.00000000000008
    vertex 24.11761903189076 19.037036414306673 4.00000000000008
  endloop
endfacet
facet normal 1.2548850847338141e-15 6.077513971008399e-16 1.0
  outer loop
    vertex 35.0 20.25 3.999999999999991
    vertex 24.11761903189076 19.037036414306673 4.00000000000008
    vertex 24.891771452281816 18.77424707819554 4.00000000000008
  endloop
endfacet
facet normal 1.2548850847338141e-15 6.077513971008399e-16 1.0
  outer loop
    vertex 35.0 20.25 3.999999999999991
    vertex 24.891771452281816 18.77424707819554 4.00000000000008
    vertex 25.625000000000004 18.41265877365274 4.00000000000008
  endloop
endfacet
facet normal 1.2548850847338141e-15 6.077513971008399e-16 1.0
  outer loop
    vertex 35.0 20.25 3.999999999999991
    vertex 25.625000000000004 18.41265877365274 4.00000000000008
    vertex 26.30475893130451 17.958458376820218 4.00000000000008
  endloop
endfacet
facet normal 1.2548850847338141e-15 6.077513971008399e-16 1.0
  outer loop
    vertex 35.0 20.25 3.999999999999991
    vertex 26.30475893130451 17.958458376820218 4.00000000000008
    vertex 26.919417382415926 17.419417382415922 4.00000000000008
  endloop
endfacet
facet normal 1.2548850847338141e-15 6.077513971008399e-16 1.0
  outer loop
    vertex 35.0 20.25 3.999999999999991
    vertex 26.919417382415926 17.419417382415922 4.00000000000008
    vertex 27.45845837682022 16.8047589313045 4.00000000000008
  endloop
endfacet
facet normal 1.2548850847338141e-15 6.077513971008399e-16 1.0
  outer loop
    vertex 35.0 20.25 3.999999999999991
    vertex 27.45845837682022 16.8047589313045 4.00000000000008
    vertex 27.91265877365274 16.125 4.00000000000008
  endloop
endfacet
facet normal 1.2548850847338141e-15 6.077513971008399e-16 1.0
  outer loop
    vertex 35.0 20.25 3.999999999999991
    vertex 27.91265877365274 16.125 4.00000000000008
    vertex 28.27424707819554 15.391771452281812 4.00000000000008
  endloop
endfacet
facet normal 1.2548850847338141e-15 6.077513971008399e-16 1.0
  outer loop
    vertex 35.0 20.25 3.999999999999991
    vertex 28.27424707819554 15.391771452281812 4.00000000000008
    vertex 28.53703641430668 14.617619031890754 4.00000000000008
  endloop
endfacet
facet normal 1.2548850847338141e-15 6.077513971008399e-16 1.0
  outer loop
    vertex 35.0 20.25 3.999999999999991
    vertex 28.53703641430668 14.617619031890754 4.00000000000008
    vertex 28.696530383586314 13.815788701375322 4.00000000000008
  endloop
endfacet
facet normal 1.2548850847338141e-15 6.077513971008399e-16 1.0
  outer loop
    vertex 35.0 20.25 3.999999999999991
    vertex 28.696530383586314 13.815788701375322 4.00000000000008
    vertex 28.750000000000004 12.999999999999998 4.00000000000008
  endloop
endfacet
facet normal 1.2548850847338141e-15 6.077513971008399e-16 1.0
  outer loop
    vertex 35.0 20.25 3.999999999999991
    vertex 28.750000000000004 12.999999999999998 4.00000000000008
    vertex 35.0 5.749999999999999 4.000000000000003
  endloop
endfacet
facet normal -0.0 -0.0 1.0
  outer loop
    vertex 3.9999999999999996 4.0 4.999999999999999
    vertex 9.499999999999996 5.250000000000003 5.000000000000032
    vertex 3.9999999999999996 22.0 4.999999999999999
  endloop
endfacet
facet normal -0.0 -0.0 1.0
  outer loop
    vertex 9.499999999999996 5.250000000000003 5.000000000000032
    vertex 3.9999999999999996 4.0 4.999999999999999
    vertex 41.00000000000001 4.0 4.999999999999999
  endloop
endfacet
facet normal -0.0 -0.0 1.0
  outer loop
    vertex 9.499999999999996 5.250000000000003 5.000000000000032
    vertex 41.00000000000001 4.0 4.999999999999999
    vertex 35.5 5.25 5.000000000000002
  endloop
endfacet
facet normal -0.0 -0.0 1.0
  outer loop
    vertex 35.5 5.25 5.000000000000002
    vertex 41.00000000000001 4.0 4.999999999999999
    vertex 35.5 20.75 4.99999999999999
  endloop
endfacet
facet normal -0.0 -0.0 1.0
  outer loop
    vertex 3.9999999999999996 22.0 4.999999999999999
    vertex 9.499999999999996 20.75 5.000000000000025
    vertex 41.00000000000001 22.0 4.999999999999999
  endloop
endfacet
facet normal -0.0 -0.0 1.0
  outer loop
    vertex 9.499999999999996 20.75 5.000000000000025
    vertex 3.9999999999999996 22.0 4.999999999999999
    vertex 9.499999999999996 5.250000000000003 5.000000000000032
  endloop
endfacet
facet normal -0.0 -0.0 1.0
  outer loop
    vertex 41.00000000000001 22.0 4.999999999999999
    vertex 9.499999999999996 20.75 5.000000000000025
    vertex 35.5 20.75 4.99999999999999
  endloop
endfacet
facet normal -0.0 -0.0 1.0
  outer loop
    vertex 41.00000000000001 22.0 4.999999999999999
    vertex 35.5 20.75 4.99999999999999
    vertex 41.00000000000001 4.0 4.999999999999999
  endloop
endfacet
facet normal 1.0 -0.0 -0.0
  outer loop
    vertex 9.999999999999998 20.25 4.000000000000025
    vertex 9.999999999999998 5.750000000000001 4.500000000000032
    vertex 9.999999999999998 5.750000000000001 4.000000000000031
  endloop
endfacet
facet normal 1.0 -0.0 -0.0
  outer loop
    vertex 9.999999999999998 5.750000000000001 4.500000000000032
    vertex 9.999999999999998 20.25 4.000000000000025
    vertex 9.999999999999998 20.25 4.500000000000025
  endloop
endfacet
facet normal 2.819966482547732e-17 1.0 -1.4099832412739473e-15
  outer loop
    vertex 9.999999999999998 5.750000000000001 4.000000000000031
    vertex 35.0 5.750000000000001 4.500000000000003
    vertex 35.0 5.749999999999999 4.000000000000003
  endloop
endfacet
facet normal 2.819966482547732e-17 1.0 -1.4099832412739473e-15
  outer loop
    vertex 35.0 5.750000000000001 4.500000000000003
    vertex 9.999999999999998 5.750000000000001 4.000000000000031
    vertex 9.999999999999998 5.750000000000001 4.500000000000032
  endloop
endfacet
facet normal 0.0 -1.0 0.0
  outer loop
    vertex 35.0 20.25 4.499999999999991
    vertex 9.999999999999998 20.25 4.000000000000025
    vertex 35.0 20.25 3.999999999999991
  endloop
endfacet
facet normal 0.0 -1.0 0.0
  outer loop
    vertex 9.999999999999998 20.25 4.000000000000025
    vertex 35.0 20.25 4.499999999999991
    vertex 9.999999999999998 20.25 4.500000000000025
  endloop
endfacet
facet normal -1.0 0.0 0.0
  outer loop
    vertex 35.0 5.750000000000001 4.500000000000003
    vertex 35.0 20.25 3.999999999999991
    vertex 35.0 5.749999999999999 4.000000000000003
  endloop
endfacet
facet normal -1.0 0.0 0.0
  outer loop
    vertex 35.0 20.25 3.999999999999991
    vertex 35.0 5.750000000000001 4.500000000000003
    vertex 35.0 20.25 4.499999999999991
  endloop
endfacet
facet normal 9.477042931543114e-16 -0.7071067811865478 0.7071067811865474
  outer loop
    vertex 35.5 20.75 4.99999999999999
    vertex 9.999999999999998 20.25 4.500000000000025
    vertex 35.0 20.25 4.499999999999991
  endloop
endfacet
facet normal 9.477042931543114e-16 -0.7071067811865478 0.7071067811865474
  outer loop
    vertex 9.999999999999998 20.25 4.500000000000025
    vertex 35.5 20.75 4.99999999999999
    vertex 9.499999999999996 20.75 5.000000000000025
  endloop
endfacet
facet normal 0.707106781186546 3.3113054999041768e-16 0.707106781186549
  outer loop
    vertex 9.999999999999998 5.750000000000001 4.500000000000032
    vertex 9.499999999999996 20.75 5.000000000000025
    vertex 9.499999999999996 5.250000000000003 5.000000000000032
  endloop
endfacet
facet normal 0.707106781186546 3.3113054999041768e-16 0.707106781186549
  outer loop
    vertex 9.499999999999996 20.75 5.000000000000025
    vertex 9.999999999999998 5.750000000000001 4.500000000000032
    vertex 9.999999999999998 20.25 4.500000000000025
  endloop
endfacet
facet normal 8.509873595140447e-16 0.7071067811865477 0.7071067811865474
  outer loop
    vertex 9.999999999999998 5.750000000000001 4.500000000000032
    vertex 35.5 5.25 5.000000000000002
    vertex 35.0 5.750000000000001 4.500000000000003
  endloop
endfacet
facet normal 8.509873595140447e-16 0.7071067811865477 0.7071067811865474
  outer loop
    vertex 35.5 5.25 5.000000000000002
    vertex 9.999999999999998 5.750000000000001 4.500000000000032
    vertex 9.499999999999996 5.250000000000003 5.000000000000032
  endloop
endfacet
facet normal -0.7071067811865478 5.480781517082761e-16 0.7071067811865472
  outer loop
    vertex 35.5 20.75 4.99999999999999
    vertex 35.0 5.750000000000001 4.500000000000003
    vertex 35.5 5.25 5.000000000000002
  endloop
endfacet
facet normal -0.7071067811865478 5.480781517082761e-16 0.7071067811865472
  outer loop
    vertex 35.0 5.750000000000001 4.500000000000003
    vertex 35.5 20.75 4.99999999999999
    vertex 35.0 20.25 4.499999999999991
  endloop
endfacet
facet normal 0.06540312923014517 0.9978589232386034 0.0
  outer loop
    vertex 21.68421129862465 6.803469616413688 4.00000000000008
    vertex 22.5 6.749999999999999 0.0
    vertex 21.68421129862465 6.803469616413688 0.0
  endloop
endfacet
facet normal 0.06540312923014517 0.9978589232386034 0.0
  outer loop
    vertex 22.5 6.749999999999999 0.0
    vertex 21.68421129862465 6.803469616413688 4.00000000000008
    vertex 22.5 6.749999999999999 4.00000000000008
  endloop
endfacet
facet normal 0.19509032201613302 0.9807852804032295 0.0
  outer loop
    vertex 20.88238096810922 6.96296358569333 4.00000000000008
    vertex 21.68421129862465 6.803469616413688 0.0
    vertex 20.88238096810922 6.96296358569333 0.0
  endloop
endfacet
facet normal 0.19509032201613302 0.9807852804032295 0.0
  outer loop
    vertex 21.68421129862465 6.803469616413688 0.0
    vertex 20.88238096810922 6.96296358569333 4.00000000000008
    vertex 21.68421129862465 6.803469616413688 4.00000000000008
  endloop
endfacet
facet normal 0.3214394653031656 0.9469301294951044 0.0
  outer loop
    vertex 20.108228547718166 7.225752921804467 4.00000000000008
    vertex 20.88238096810922 6.96296358569333 0.0
    vertex 20.108228547718166 7.225752921804467 0.0
  endloop
endfacet
facet normal 0.3214394653031656 0.9469301294951044 0.0
  outer loop
    vertex 20.88238096810922 6.96296358569333 0.0
    vertex 20.108228547718166 7.225752921804467 4.00000000000008
    vertex 20.88238096810922 6.96296358569333 4.00000000000008
  endloop
endfacet
facet normal 0.4422886902190043 0.896872741532687 0.0
  outer loop
    vertex 19.37499999999998 7.587341226347269 4.00000000000008
    vertex 20.108228547718166 7.225752921804467 0.0
    vertex 19.37499999999998 7.587341226347269 0.0
  endloop
endfacet
facet normal 0.4422886902190043 0.896872741532687 0.0
  outer loop
    vertex 20.108228547718166 7.225752921804467 0.0
    vertex 19.37499999999998 7.587341226347269 4.00000000000008
    vertex 20.108228547718166 7.225752921804467 4.00000000000008
  endloop
endfacet
facet normal 0.5555702330196066 0.8314696123025425 0.0
  outer loop
    vertex 18.695241068695477 8.041541623179794 4.00000000000008
    vertex 19.37499999999998 7.587341226347269 0.0
    vertex 18.695241068695477 8.041541623179794 0.0
  endloop
endfacet
facet normal 0.5555702330196066 0.8314696123025425 0.0
  outer loop
    vertex 19.37499999999998 7.587341226347269 0.0
    vertex 18.695241068695477 8.041541623179794 4.00000000000008
    vertex 19.37499999999998 7.587341226347269 4.00000000000008
  endloop
endfacet
facet normal 0.6593458151000717 0.7518398074789749 0.0
  outer loop
    vertex 18.080582617584064 8.580582617584094 4.00000000000008
    vertex 18.695241068695477 8.041541623179794 0.0
    vertex 18.080582617584064 8.580582617584094 0.0
  endloop
endfacet
facet normal 0.6593458151000717 0.7518398074789749 0.0
  outer loop
    vertex 18.695241068695477 8.041541623179794 0.0
    vertex 18.080582617584064 8.580582617584094 4.00000000000008
    vertex 18.695241068695477 8.041541623179794 4.00000000000008
  endloop
endfacet
facet normal 0.7518398074789789 0.6593458151000671 0.0
  outer loop
    vertex 17.541541623179768 9.195241068695513 0.0
    vertex 18.080582617584064 8.580582617584094 4.00000000000008
    vertex 18.080582617584064 8.580582617584094 0.0
  endloop
endfacet
facet normal 0.7518398074789789 0.6593458151000671 0.0
  outer loop
    vertex 18.080582617584064 8.580582617584094 4.00000000000008
    vertex 17.541541623179768 9.195241068695513 0.0
    vertex 17.541541623179768 9.195241068695513 4.00000000000008
  endloop
endfacet
facet normal 0.831469612302548 0.5555702330195983 0.0
  outer loop
    vertex 17.08734122634725 9.875000000000018 0.0
    vertex 17.541541623179768 9.195241068695513 4.00000000000008
    vertex 17.541541623179768 9.195241068695513 0.0
  endloop
endfacet
facet normal 0.831469612302548 0.5555702330195983 0.0
  outer loop
    vertex 17.541541623179768 9.195241068695513 4.00000000000008
    vertex 17.08734122634725 9.875000000000018 0.0
    vertex 17.08734122634725 9.875000000000018 4.00000000000008
  endloop
endfacet
facet normal 0.8968727415326893 0.4422886902189994 0.0
  outer loop
    vertex 16.72575292180445 10.608228547718207 0.0
    vertex 17.08734122634725 9.875000000000018 4.00000000000008
    vertex 17.08734122634725 9.875000000000018 0.0
  endloop
endfacet
facet normal 0.8968727415326893 0.4422886902189994 0.0
  outer loop
    vertex 17.08734122634725 9.875000000000018 4.00000000000008
    vertex 16.72575292180445 10.608228547718207 0.0
    vertex 16.72575292180445 10.608228547718207 4.00000000000008
  endloop
endfacet
facet normal 0.9469301294951076 0.3214394653031563 0.0
  outer loop
    vertex 16.46296358569332 11.382380968109262 0.0
    vertex 16.72575292180445 10.608228547718207 4.00000000000008
    vertex 16.72575292180445 10.608228547718207 0.0
  endloop
endfacet
facet normal 0.9469301294951076 0.3214394653031563 0.0
  outer loop
    vertex 16.72575292180445 10.608228547718207 4.00000000000008
    vertex 16.46296358569332 11.382380968109262 0.0
    vertex 16.46296358569332 11.382380968109262 4.00000000000008
  endloop
endfacet
facet normal 0.9807852804032309 0.19509032201612606 0.0
  outer loop
    vertex 16.303469616413683 12.184211298624694 0.0
    vertex 16.46296358569332 11.382380968109262 4.00000000000008
    vertex 16.46296358569332 11.382380968109262 0.0
  endloop
endfacet
facet normal 0.9807852804032309 0.19509032201612606 0.0
  outer loop
    vertex 16.46296358569332 11.382380968109262 4.00000000000008
    vertex 16.303469616413683 12.184211298624694 0.0
    vertex 16.303469616413683 12.184211298624694 4.00000000000008
  endloop
endfacet
facet normal 0.9978589232386038 0.06540312923014069 0.0
  outer loop
    vertex 16.25 13.000000000000016 0.0
    vertex 16.303469616413683 12.184211298624694 4.00000000000008
    vertex 16.303469616413683 12.184211298624694 0.0
  endloop
endfacet
facet normal 0.9978589232386038 0.06540312923014069 0.0
  outer loop
    vertex 16.303469616413683 12.184211298624694 4.00000000000008
    vertex 16.25 13.000000000000016 0.0
    vertex 16.25 13.000000000000016 4.00000000000008
  endloop
endfacet
facet normal 0.9978589232386036 -0.065403129230144 -0.0
  outer loop
    vertex 16.303469616413686 13.815788701375338 0.0
    vertex 16.25 13.000000000000016 4.00000000000008
    vertex 16.25 13.000000000000016 0.0
  endloop
endfacet
facet normal 0.9978589232386036 -0.065403129230144 -0.0
  outer loop
    vertex 16.25 13.000000000000016 4.00000000000008
    vertex 16.303469616413686 13.815788701375338 0.0
    vertex 16.303469616413686 13.815788701375338 4.00000000000008
  endloop
endfacet
facet normal 0.9807852804032295 -0.19509032201613302 -0.0
  outer loop
    vertex 16.46296358569333 14.617619031890769 0.0
    vertex 16.303469616413686 13.815788701375338 4.00000000000008
    vertex 16.303469616413686 13.815788701375338 0.0
  endloop
endfacet
facet normal 0.9807852804032295 -0.19509032201613302 -0.0
  outer loop
    vertex 16.303469616413686 13.815788701375338 4.00000000000008
    vertex 16.46296358569333 14.617619031890769 0.0
    vertex 16.46296358569333 14.617619031890769 4.00000000000008
  endloop
endfacet
facet normal 0.9469301294951054 -0.3214394653031625 -0.0
  outer loop
    vertex 16.725752921804464 15.391771452281823 0.0
    vertex 16.46296358569333 14.617619031890769 4.00000000000008
    vertex 16.46296358569333 14.617619031890769 0.0
  endloop
endfacet
facet normal 0.9469301294951054 -0.3214394653031625 -0.0
  outer loop
    vertex 16.46296358569333 14.617619031890769 4.00000000000008
    vertex 16.725752921804464 15.391771452281823 0.0
    vertex 16.725752921804464 15.391771452281823 4.00000000000008
  endloop
endfacet
facet normal 0.896872741532687 -0.4422886902190043 -0.0
  outer loop
    vertex 17.087341226347267 16.12500000000001 0.0
    vertex 16.725752921804464 15.391771452281823 4.00000000000008
    vertex 16.725752921804464 15.391771452281823 0.0
  endloop
endfacet
facet normal 0.896872741532687 -0.4422886902190043 -0.0
  outer loop
    vertex 16.725752921804464 15.391771452281823 4.00000000000008
    vertex 17.087341226347267 16.12500000000001 0.0
    vertex 17.087341226347267 16.12500000000001 4.00000000000008
  endloop
endfacet
facet normal 0.8314696123025442 -0.5555702330196038 -0.0
  outer loop
    vertex 17.54154162317979 16.804758931304512 0.0
    vertex 17.087341226347267 16.12500000000001 4.00000000000008
    vertex 17.087341226347267 16.12500000000001 0.0
  endloop
endfacet
facet normal 0.8314696123025442 -0.5555702330196038 -0.0
  outer loop
    vertex 17.087341226347267 16.12500000000001 4.00000000000008
    vertex 17.54154162317979 16.804758931304512 0.0
    vertex 17.54154162317979 16.804758931304512 4.00000000000008
  endloop
endfacet
facet normal 0.7518398074789759 -0.6593458151000708 -0.0
  outer loop
    vertex 18.08058261758409 17.41941738241593 0.0
    vertex 17.54154162317979 16.804758931304512 4.00000000000008
    vertex 17.54154162317979 16.804758931304512 0.0
  endloop
endfacet
facet normal 0.7518398074789759 -0.6593458151000708 -0.0
  outer loop
    vertex 17.54154162317979 16.804758931304512 4.00000000000008
    vertex 18.08058261758409 17.41941738241593 0.0
    vertex 18.08058261758409 17.41941738241593 4.00000000000008
  endloop
endfacet
facet normal 0.6593458151000671 -0.7518398074789789 -0.0
  outer loop
    vertex 18.695241068695506 17.958458376820225 4.00000000000008
    vertex 18.08058261758409 17.41941738241593 0.0
    vertex 18.695241068695506 17.958458376820225 0.0
  endloop
endfacet
facet normal 0.6593458151000671 -0.7518398074789789 -0.0
  outer loop
    vertex 18.08058261758409 17.41941738241593 0.0
    vertex 18.695241068695506 17.958458376820225 4.00000000000008
    vertex 18.08058261758409 17.41941738241593 4.00000000000008
  endloop
endfacet
facet normal 0.5555702330196015 -0.8314696123025459 -0.0
  outer loop
    vertex 19.37500000000001 18.412658773652744 4.00000000000008
    vertex 18.695241068695506 17.958458376820225 0.0
    vertex 19.37500000000001 18.412658773652744 0.0
  endloop
endfacet
facet normal 0.5555702330196015 -0.8314696123025459 -0.0
  outer loop
    vertex 18.695241068695506 17.958458376820225 0.0
    vertex 19.37500000000001 18.412658773652744 4.00000000000008
    vertex 18.695241068695506 17.958458376820225 4.00000000000008
  endloop
endfacet
facet normal 0.4422886902190001 -0.8968727415326889 -0.0
  outer loop
    vertex 20.1082285477182 18.774247078195543 4.00000000000008
    vertex 19.37500000000001 18.412658773652744 0.0
    vertex 20.1082285477182 18.774247078195543 0.0
  endloop
endfacet
facet normal 0.4422886902190001 -0.8968727415326889 -0.0
  outer loop
    vertex 19.37500000000001 18.412658773652744 0.0
    vertex 20.1082285477182 18.774247078195543 4.00000000000008
    vertex 19.37500000000001 18.412658773652744 4.00000000000008
  endloop
endfacet
facet normal 0.3214394653031625 -0.9469301294951054 -0.0
  outer loop
    vertex 20.882380968109253 19.03703641430668 4.00000000000008
    vertex 20.1082285477182 18.774247078195543 0.0
    vertex 20.882380968109253 19.03703641430668 0.0
  endloop
endfacet
facet normal 0.3214394653031625 -0.9469301294951054 -0.0
  outer loop
    vertex 20.1082285477182 18.774247078195543 0.0
    vertex 20.882380968109253 19.03703641430668 4.00000000000008
    vertex 20.1082285477182 18.774247078195543 4.00000000000008
  endloop
endfacet
facet normal 0.19509032201612572 -0.980785280403231 -0.0
  outer loop
    vertex 21.684211298624685 19.196530383586314 4.00000000000008
    vertex 20.882380968109253 19.03703641430668 0.0
    vertex 21.684211298624685 19.196530383586314 0.0
  endloop
endfacet
facet normal 0.19509032201612572 -0.980785280403231 -0.0
  outer loop
    vertex 20.882380968109253 19.03703641430668 0.0
    vertex 21.684211298624685 19.196530383586314 4.00000000000008
    vertex 20.882380968109253 19.03703641430668 4.00000000000008
  endloop
endfacet
facet normal 0.0654031292301408 -0.9978589232386038 -0.0
  outer loop
    vertex 22.500000000000007 19.25 4.00000000000008
    vertex 21.684211298624685 19.196530383586314 0.0
    vertex 22.500000000000007 19.25 0.0
  endloop
endfacet
facet normal 0.0654031292301408 -0.9978589232386038 -0.0
  outer loop
    vertex 21.684211298624685 19.196530383586314 0.0
    vertex 22.500000000000007 19.25 4.00000000000008
    vertex 21.684211298624685 19.196530383586314 4.00000000000008
  endloop
endfacet
facet normal -0.065403129230144 -0.9978589232386036 -0.0
  outer loop
    vertex 23.31578870137533 19.196530383586314 4.00000000000008
    vertex 22.500000000000007 19.25 0.0
    vertex 23.31578870137533 19.196530383586314 0.0
  endloop
endfacet
facet normal -0.065403129230144 -0.9978589232386036 -0.0
  outer loop
    vertex 22.500000000000007 19.25 0.0
    vertex 23.31578870137533 19.196530383586314 4.00000000000008
    vertex 22.500000000000007 19.25 4.00000000000008
  endloop
endfacet
facet normal -0.19509032201612972 -0.9807852804032302 -0.0
  outer loop
    vertex 24.11761903189076 19.037036414306673 4.00000000000008
    vertex 23.31578870137533 19.196530383586314 0.0
    vertex 24.11761903189076 19.037036414306673 0.0
  endloop
endfacet
facet normal -0.19509032201612972 -0.9807852804032302 -0.0
  outer loop
    vertex 23.31578870137533 19.196530383586314 0.0
    vertex 24.11761903189076 19.037036414306673 4.00000000000008
    vertex 23.31578870137533 19.196530383586314 4.00000000000008
  endloop
endfacet
facet normal -0.3214394653031625 -0.9469301294951054 -0.0
  outer loop
    vertex 24.891771452281816 18.77424707819554 4.00000000000008
    vertex 24.11761903189076 19.037036414306673 0.0
    vertex 24.891771452281816 18.77424707819554 0.0
  endloop
endfacet
facet normal -0.3214394653031625 -0.9469301294951054 -0.0
  outer loop
    vertex 24.11761903189076 19.037036414306673 0.0
    vertex 24.891771452281816 18.77424707819554 4.00000000000008
    vertex 24.11761903189076 19.037036414306673 4.00000000000008
  endloop
endfacet
facet normal -0.4422886902190001 -0.8968727415326889 -0.0
  outer loop
    vertex 25.625000000000004 18.41265877365274 4.00000000000008
    vertex 24.891771452281816 18.77424707819554 0.0
    vertex 25.625000000000004 18.41265877365274 0.0
  endloop
endfacet
facet normal -0.4422886902190001 -0.8968727415326889 -0.0
  outer loop
    vertex 24.891771452281816 18.77424707819554 0.0
    vertex 25.625000000000004 18.41265877365274 4.00000000000008
    vertex 24.891771452281816 18.77424707819554 4.00000000000008
  endloop
endfacet
facet normal -0.5555702330196038 -0.8314696123025442 -0.0
  outer loop
    vertex 26.30475893130451 17.958458376820218 4.00000000000008
    vertex 25.625000000000004 18.41265877365274 0.0
    vertex 26.30475893130451 17.958458376820218 0.0
  endloop
endfacet
facet normal -0.5555702330196038 -0.8314696123025442 -0.0
  outer loop
    vertex 25.625000000000004 18.41265877365274 0.0
    vertex 26.30475893130451 17.958458376820218 4.00000000000008
    vertex 25.625000000000004 18.41265877365274 4.00000000000008
  endloop
endfacet
facet normal -0.6593458151000671 -0.7518398074789789 -0.0
  outer loop
    vertex 26.919417382415926 17.419417382415922 4.00000000000008
    vertex 26.30475893130451 17.958458376820218 0.0
    vertex 26.919417382415926 17.419417382415922 0.0
  endloop
endfacet
facet normal -0.6593458151000671 -0.7518398074789789 -0.0
  outer loop
    vertex 26.30475893130451 17.958458376820218 0.0
    vertex 26.919417382415926 17.419417382415922 4.00000000000008
    vertex 26.30475893130451 17.958458376820218 4.00000000000008
  endloop
endfacet
facet normal -0.7518398074789789 -0.6593458151000671 -0.0
  outer loop
    vertex 26.919417382415926 17.419417382415922 4.00000000000008
    vertex 27.45845837682022 16.8047589313045 0.0
    vertex 27.45845837682022 16.8047589313045 4.00000000000008
  endloop
endfacet
facet normal -0.7518398074789789 -0.6593458151000671 -0.0
  outer loop
    vertex 27.45845837682022 16.8047589313045 0.0
    vertex 26.919417382415926 17.419417382415922 4.00000000000008
    vertex 26.919417382415926 17.419417382415922 0.0
  endloop
endfacet
facet normal -0.8314696123025459 -0.5555702330196015 -0.0
  outer loop
    vertex 27.45845837682022 16.8047589313045 4.00000000000008
    vertex 27.91265877365274 16.125 0.0
    vertex 27.91265877365274 16.125 4.00000000000008
  endloop
endfacet
facet normal -0.8314696123025459 -0.5555702330196015 -0.0
  outer loop
    vertex 27.91265877365274 16.125 0.0
    vertex 27.45845837682022 16.8047589313045 4.00000000000008
    vertex 27.45845837682022 16.8047589313045 0.0
  endloop
endfacet
facet normal -0.8968727415326884 -0.44228869021900147 -0.0
  outer loop
    vertex 27.91265877365274 16.125 4.00000000000008
    vertex 28.27424707819554 15.391771452281812 0.0
    vertex 28.27424707819554 15.391771452281812 4.00000000000008
  endloop
endfacet
facet normal -0.8968727415326884 -0.44228869021900147 -0.0
  outer loop
    vertex 28.27424707819554 15.391771452281812 0.0
    vertex 27.91265877365274 16.125 4.00000000000008
    vertex 27.91265877365274 16.125 0.0
  endloop
endfacet
facet normal -0.9469301294951048 -0.32143946530316453 -0.0
  outer loop
    vertex 28.27424707819554 15.391771452281812 4.00000000000008
    vertex 28.53703641430668 14.617619031890754 0.0
    vertex 28.53703641430668 14.617619031890754 4.00000000000008
  endloop
endfacet
facet normal -0.9469301294951048 -0.32143946530316453 -0.0
  outer loop
    vertex 28.53703641430668 14.617619031890754 0.0
    vertex 28.27424707819554 15.391771452281812 4.00000000000008
    vertex 28.27424707819554 15.391771452281812 0.0
  endloop
endfacet
facet normal -0.980785280403231 -0.19509032201612572 -0.0
  outer loop
    vertex 28.53703641430668 14.617619031890754 4.00000000000008
    vertex 28.696530383586314 13.815788701375322 0.0
    vertex 28.696530383586314 13.815788701375322 4.00000000000008
  endloop
endfacet
facet normal -0.980785280403231 -0.19509032201612572 -0.0
  outer loop
    vertex 28.696530383586314 13.815788701375322 0.0
    vertex 28.53703641430668 14.617619031890754 4.00000000000008
    vertex 28.53703641430668 14.617619031890754 0.0
  endloop
endfacet
facet normal -0.9978589232386034 -0.06540312923014745 -0.0
  outer loop
    vertex 28.696530383586314 13.815788701375322 4.00000000000008
    vertex 28.750000000000004 12.999999999999998 0.0
    vertex 28.750000000000004 12.999999999999998 4.00000000000008
  endloop
endfacet
facet normal -0.9978589232386034 -0.06540312923014745 -0.0
  outer loop
    vertex 28.750000000000004 12.999999999999998 0.0
    vertex 28.696530383586314 13.815788701375322 4.00000000000008
    vertex 28.696530383586314 13.815788701375322 0.0
  endloop
endfacet
facet normal -0.9978589232386034 0.06540312923014756 -0.0
  outer loop
    vertex 28.750000000000004 12.999999999999998 4.00000000000008
    vertex 28.696530383586314 12.184211298624678 0.0
    vertex 28.696530383586314 12.184211298624678 4.00000000000008
  endloop
endfacet
facet normal -0.9978589232386034 0.06540312923014756 -0.0
  outer loop
    vertex 28.696530383586314 12.184211298624678 0.0
    vertex 28.750000000000004 12.999999999999998 4.00000000000008
    vertex 28.750000000000004 12.999999999999998 0.0
  endloop
endfacet
facet normal -0.980785280403231 0.19509032201612572 -0.0
  outer loop
    vertex 28.696530383586314 12.184211298624678 4.00000000000008
    vertex 28.53703641430668 11.382380968109244 0.0
    vertex 28.53703641430668 11.382380968109244 4.00000000000008
  endloop
endfacet
facet normal -0.980785280403231 0.19509032201612572 -0.0
  outer loop
    vertex 28.53703641430668 11.382380968109244 0.0
    vertex 28.696530383586314 12.184211298624678 4.00000000000008
    vertex 28.696530383586314 12.184211298624678 0.0
  endloop
endfacet
facet normal -0.9469301294951045 0.32143946530316503 -0.0
  outer loop
    vertex 28.53703641430668 11.382380968109244 4.00000000000008
    vertex 28.27424707819554 10.608228547718188 0.0
    vertex 28.27424707819554 10.608228547718188 4.00000000000008
  endloop
endfacet
facet normal -0.9469301294951045 0.32143946530316503 -0.0
  outer loop
    vertex 28.27424707819554 10.608228547718188 0.0
    vertex 28.53703641430668 11.382380968109244 4.00000000000008
    vertex 28.53703641430668 11.382380968109244 0.0
  endloop
endfacet
facet normal -0.8968727415326889 0.4422886902190001 -0.0
  outer loop
    vertex 28.27424707819554 10.608228547718188 4.00000000000008
    vertex 27.91265877365274 9.874999999999998 0.0
    vertex 27.91265877365274 9.874999999999998 4.00000000000008
  endloop
endfacet
facet normal -0.8968727415326889 0.4422886902190001 -0.0
  outer loop
    vertex 27.91265877365274 9.874999999999998 0.0
    vertex 28.27424707819554 10.608228547718188 4.00000000000008
    vertex 28.27424707819554 10.608228547718188 0.0
  endloop
endfacet
facet normal -0.8314696123025463 0.5555702330196006 -0.0
  outer loop
    vertex 27.91265877365274 9.874999999999998 4.00000000000008
    vertex 27.45845837682022 9.195241068695495 0.0
    vertex 27.45845837682022 9.195241068695495 4.00000000000008
  endloop
endfacet
facet normal -0.8314696123025463 0.5555702330196006 -0.0
  outer loop
    vertex 27.45845837682022 9.195241068695495 0.0
    vertex 27.91265877365274 9.874999999999998 4.00000000000008
    vertex 27.91265877365274 9.874999999999998 0.0
  endloop
endfacet
facet normal -0.7518398074789789 0.6593458151000671 -0.0
  outer loop
    vertex 27.45845837682022 9.195241068695495 4.00000000000008
    vertex 26.919417382415926 8.580582617584076 0.0
    vertex 26.919417382415926 8.580582617584076 4.00000000000008
  endloop
endfacet
facet normal -0.7518398074789789 0.6593458151000671 -0.0
  outer loop
    vertex 26.919417382415926 8.580582617584076 0.0
    vertex 27.45845837682022 9.195241068695495 4.00000000000008
    vertex 27.45845837682022 9.195241068695495 0.0
  endloop
endfacet
facet normal -0.6593458151000681 0.751839807478978 -0.0
  outer loop
    vertex 26.30475893130451 8.041541623179778 4.00000000000008
    vertex 26.919417382415926 8.580582617584076 0.0
    vertex 26.30475893130451 8.041541623179778 0.0
  endloop
endfacet
facet normal -0.6593458151000681 0.751839807478978 -0.0
  outer loop
    vertex 26.919417382415926 8.580582617584076 0.0
    vertex 26.30475893130451 8.041541623179778 4.00000000000008
    vertex 26.919417382415926 8.580582617584076 4.00000000000008
  endloop
endfacet
facet normal -0.5555702330195994 0.8314696123025471 -0.0
  outer loop
    vertex 25.624999999999996 7.587341226347257 4.00000000000008
    vertex 26.30475893130451 8.041541623179778 0.0
    vertex 25.624999999999996 7.587341226347257 0.0
  endloop
endfacet
facet normal -0.5555702330195994 0.8314696123025471 -0.0
  outer loop
    vertex 26.30475893130451 8.041541623179778 0.0
    vertex 25.624999999999996 7.587341226347257 4.00000000000008
    vertex 26.30475893130451 8.041541623179778 4.00000000000008
  endloop
endfacet
facet normal -0.44228869021900286 0.8968727415326876 -0.0
  outer loop
    vertex 24.891771452281812 7.225752921804456 4.00000000000008
    vertex 25.624999999999996 7.587341226347257 0.0
    vertex 24.891771452281812 7.225752921804456 0.0
  endloop
endfacet
facet normal -0.44228869021900286 0.8968727415326876 -0.0
  outer loop
    vertex 25.624999999999996 7.587341226347257 0.0
    vertex 24.891771452281812 7.225752921804456 4.00000000000008
    vertex 25.624999999999996 7.587341226347257 4.00000000000008
  endloop
endfacet
facet normal -0.3214394653031625 0.9469301294951054 -0.0
  outer loop
    vertex 24.117619031890758 6.962963585693321 4.00000000000008
    vertex 24.891771452281812 7.225752921804456 0.0
    vertex 24.117619031890758 6.962963585693321 0.0
  endloop
endfacet
facet normal -0.3214394653031625 0.9469301294951054 -0.0
  outer loop
    vertex 24.891771452281812 7.225752921804456 0.0
    vertex 24.117619031890758 6.962963585693321 4.00000000000008
    vertex 24.891771452281812 7.225752921804456 4.00000000000008
  endloop
endfacet
facet normal -0.19509032201612572 0.980785280403231 -0.0
  outer loop
    vertex 23.315788701375325 6.803469616413684 4.00000000000008
    vertex 24.117619031890758 6.962963585693321 0.0
    vertex 23.315788701375325 6.803469616413684 0.0
  endloop
endfacet
facet normal -0.19509032201612572 0.980785280403231 -0.0
  outer loop
    vertex 24.117619031890758 6.962963585693321 0.0
    vertex 23.315788701375325 6.803469616413684 4.00000000000008
    vertex 24.117619031890758 6.962963585693321 4.00000000000008
  endloop
endfacet
facet normal -0.065403129230144 0.9978589232386036 -0.0
  outer loop
    vertex 22.5 6.749999999999999 4.00000000000008
    vertex 23.315788701375325 6.803469616413684 0.0
    vertex 22.5 6.749999999999999 0.0
  endloop
endfacet
facet normal -0.065403129230144 0.9978589232386036 -0.0
  outer loop
    vertex 23.315788701375325 6.803469616413684 0.0
    vertex 22.5 6.749999999999999 4.00000000000008
    vertex 23.315788701375325 6.803469616413684 4.00000000000008
  endloop
endfacet
facet normal -0.0 -0.0 1.0
  outer loop
    vertex 45.0 0.0 1.5999999999999999
    vertex 0.0 25.999999999999996 1.5999999999999999
    vertex 0.0 0.0 1.5999999999999999
  endloop
endfacet
facet normal -0.0 -0.0 1.0
  outer loop
    vertex 0.0 25.999999999999996 1.5999999999999999
    vertex 45.0 0.0 1.5999999999999999
    vertex 45.0 25.999999999999996 1.5999999999999999
  endloop
endfacet
facet normal 0.0 -1.0 -5.874930171974787e-16
  outer loop
    vertex 46.6 -1.6000000000000003 1.5999999999999999
    vertex -1.5999999999999999 -1.5999999999999999 0.9999999999999999
    vertex 46.6 -1.5999999999999999 0.9999999999999999
  endloop
endfacet
facet normal 0.0 -1.0 -5.874930171974787e-16
  outer loop
    vertex -1.5999999999999999 -1.5999999999999999 0.9999999999999999
    vertex 46.6 -1.6000000000000003 1.5999999999999999
    vertex -1.6000000000000003 -1.6000000000000003 1.5999999999999999
  endloop
endfacet
facet normal -0.0 1.0 -0.0
  outer loop
    vertex -1.6000000000000003 27.6 1.5999999999999999
    vertex 46.6 27.6 0.9999999999999999
    vertex -1.5999999999999999 27.6 0.9999999999999999
  endloop
endfacet
facet normal -0.0 1.0 -0.0
  outer loop
    vertex 46.6 27.6 0.9999999999999999
    vertex -1.6000000000000003 27.6 1.5999999999999999
    vertex 46.6 27.6 1.5999999999999999
  endloop
endfacet
facet normal -1.0 0.0 -5.874930171974787e-16
  outer loop
    vertex -1.6000000000000003 27.6 1.5999999999999999
    vertex -1.5999999999999999 -1.5999999999999999 0.9999999999999999
    vertex -1.6000000000000003 -1.6000000000000003 1.5999999999999999
  endloop
endfacet
facet normal -1.0 0.0 -5.874930171974787e-16
  outer loop
    vertex -1.5999999999999999 -1.5999999999999999 0.9999999999999999
    vertex -1.6000000000000003 27.6 1.5999999999999999
    vertex -1.5999999999999999 27.6 0.9999999999999999
  endloop
endfacet
facet normal -0.0 -0.0 1.0
  outer loop
    vertex -1.6000000000000003 -1.6000000000000003 1.5999999999999999
    vertex 0.0 0.0 1.5999999999999999
    vertex -1.6000000000000003 27.6 1.5999999999999999
  endloop
endfacet
facet normal -0.0 -0.0 1.0
  outer loop
    vertex 0.0 0.0 1.5999999999999999
    vertex -1.6000000000000003 -1.6000000000000003 1.5999999999999999
    vertex 46.6 -1.6000000000000003 1.5999999999999999
  endloop
endfacet
facet normal -0.0 -0.0 1.0
  outer loop
    vertex 0.0 0.0 1.5999999999999999
    vertex 46.6 -1.6000000000000003 1.5999999999999999
    vertex 45.0 0.0 1.5999999999999999
  endloop
endfacet
facet normal -0.0 -0.0 1.0
  outer loop
    vertex 45.0 0.0 1.5999999999999999
    vertex 46.6 -1.6000000000000003 1.5999999999999999
    vertex 45.0 25.999999999999996 1.5999999999999999
  endloop
endfacet
facet normal -0.0 -0.0 1.0
  outer loop
    vertex -1.6000000000000003 27.6 1.5999999999999999
    vertex 0.0 25.999999999999996 1.5999999999999999
    vertex 46.6 27.6 1.5999999999999999
  endloop
endfacet
facet normal -0.0 -0.0 1.0
  outer loop
    vertex 0.0 25.999999999999996 1.5999999999999999
    vertex -1.6000000000000003 27.6 1.5999999999999999
    vertex 0.0 0.0 1.5999999999999999
  endloop
endfacet
facet normal -0.0 -0.0 1.0
  outer loop
    vertex 46.6 27.6 1.5999999999999999
    vertex 0.0 25.999999999999996 1.5999999999999999
    vertex 45.0 25.999999999999996 1.5999999999999999
  endloop
endfacet
facet normal -0.0 -0.0 1.0
  outer loop
    vertex 46.6 27.6 1.5999999999999999
    vertex 45.0 25.999999999999996 1.5999999999999999
    vertex 46.6 -1.6000000000000003 1.5999999999999999
  endloop
endfacet
facet normal 1.0 -0.0 -0.0
  outer loop
    vertex 46.6 -1.5999999999999999 0.9999999999999999
    vertex 46.6 27.6 1.5999999999999999
    vertex 46.6 -1.6000000000000003 1.5999999999999999
  endloop
endfacet
facet normal 1.0 -0.0 -0.0
  outer loop
    vertex 46.6 27.6 1.5999999999999999
    vertex 46.6 -1.5999999999999999 0.9999999999999999
    vertex 46.6 27.6 0.9999999999999999
  endloop
endfacet
facet normal 0.0 0.0 -1.0
  outer loop
    vertex -0.600000000000001 26.6 0.0
    vertex 18.08058261758409 17.41941738241593 0.0
    vertex -0.600000000000001 -0.5999999999999996 0.0
  endloop
endfacet
facet normal 0.0 0.0 -1.0
  outer loop
    vertex 18.08058261758409 17.41941738241593 0.0
    vertex -0.600000000000001 26.6 0.0
    vertex 18.695241068695506 17.958458376820225 0.0
  endloop
endfacet
facet normal 0.0 0.0 -1.0
  outer loop
    vertex 18.695241068695506 17.958458376820225 0.0
    vertex -0.600000000000001 26.6 0.0
    vertex 19.37500000000001 18.412658773652744 0.0
  endloop
endfacet
facet normal 0.0 0.0 -1.0
  outer loop
    vertex 19.37500000000001 18.412658773652744 0.0
    vertex -0.600000000000001 26.6 0.0
    vertex 20.1082285477182 18.774247078195543 0.0
  endloop
endfacet
facet normal 0.0 0.0 -1.0
  outer loop
    vertex 20.1082285477182 18.774247078195543 0.0
    vertex -0.600000000000001 26.6 0.0
    vertex 20.882380968109253 19.03703641430668 0.0
  endloop
endfacet
facet normal 0.0 0.0 -1.0
  outer loop
    vertex 20.882380968109253 19.03703641430668 0.0
    vertex -0.600000000000001 26.6 0.0
    vertex 45.60000000000001 26.6 0.0
  endloop
endfacet
facet normal 0.0 0.0 -1.0
  outer loop
    vertex -0.600000000000001 -0.5999999999999996 0.0
    vertex 18.08058261758409 17.41941738241593 0.0
    vertex 17.54154162317979 16.804758931304512 0.0
  endloop
endfacet
facet normal 0.0 0.0 -1.0
  outer loop
    vertex -0.600000000000001 -0.5999999999999996 0.0
    vertex 17.54154162317979 16.804758931304512 0.0
    vertex 17.087341226347267 16.12500000000001 0.0
  endloop
endfacet
facet normal 0.0 0.0 -1.0
  outer loop
    vertex -0.600000000000001 -0.5999999999999996 0.0
    vertex 17.087341226347267 16.12500000000001 0.0
    vertex 16.725752921804464 15.391771452281823 0.0
  endloop
endfacet
facet normal 0.0 0.0 -1.0
  outer loop
    vertex -0.600000000000001 -0.5999999999999996 0.0
    vertex 16.725752921804464 15.391771452281823 0.0
    vertex 16.46296358569333 14.617619031890769 0.0
  endloop
endfacet
facet normal 0.0 0.0 -1.0
  outer loop
    vertex -0.600000000000001 -0.5999999999999996 0.0
    vertex 16.46296358569333 14.617619031890769 0.0
    vertex 16.303469616413686 13.815788701375338 0.0
  endloop
endfacet
facet normal 0.0 0.0 -1.0
  outer loop
    vertex -0.600000000000001 -0.5999999999999996 0.0
    vertex 16.303469616413686 13.815788701375338 0.0
    vertex 16.25 13.000000000000016 0.0
  endloop
endfacet
facet normal 0.0 0.0 -1.0
  outer loop
    vertex 20.882380968109253 19.03703641430668 0.0
    vertex 45.60000000000001 26.6 0.0
    vertex 21.684211298624685 19.196530383586314 0.0
  endloop
endfacet
facet normal 0.0 0.0 -1.0
  outer loop
    vertex 21.684211298624685 19.196530383586314 0.0
    vertex 45.60000000000001 26.6 0.0
    vertex 22.500000000000007 19.25 0.0
  endloop
endfacet
facet normal 0.0 0.0 -1.0
  outer loop
    vertex 22.500000000000007 19.25 0.0
    vertex 45.60000000000001 26.6 0.0
    vertex 23.31578870137533 19.196530383586314 0.0
  endloop
endfacet
facet normal 0.0 0.0 -1.0
  outer loop
    vertex 23.31578870137533 19.196530383586314 0.0
    vertex 45.60000000000001 26.6 0.0
    vertex 24.11761903189076 19.037036414306673 0.0
  endloop
endfacet
facet normal 0.0 0.0 -1.0
  outer loop
    vertex 24.11761903189076 19.037036414306673 0.0
    vertex 45.60000000000001 26.6 0.0
    vertex 24.891771452281816 18.77424707819554 0.0
  endloop
endfacet
facet normal 0.0 0.0 -1.0
  outer loop
    vertex 24.891771452281816 18.77424707819554 0.0
    vertex 45.60000000000001 26.6 0.0
    vertex 25.625000000000004 18.41265877365274 0.0
  endloop
endfacet
facet normal 0.0 0.0 -1.0
  outer loop
    vertex 25.625000000000004 18.41265877365274 0.0
    vertex 45.60000000000001 26.6 0.0
    vertex 26.30475893130451 17.958458376820218 0.0
  endloop
endfacet
facet normal 0.0 0.0 -1.0
  outer loop
    vertex 26.30475893130451 17.958458376820218 0.0
    vertex 45.60000000000001 26.6 0.0
    vertex 26.919417382415926 17.419417382415922 0.0
  endloop
endfacet
facet normal 0.0 0.0 -1.0
  outer loop
    vertex 26.919417382415926 17.419417382415922 0.0
    vertex 45.60000000000001 26.6 0.0
    vertex 27.45845837682022 16.8047589313045 0.0
  endloop
endfacet
facet normal 0.0 0.0 -1.0
  outer loop
    vertex 27.45845837682022 16.8047589313045 0.0
    vertex 45.60000000000001 26.6 0.0
    vertex 27.91265877365274 16.125 0.0
  endloop
endfacet
facet normal 0.0 0.0 -1.0
  outer loop
    vertex 27.91265877365274 16.125 0.0
    vertex 45.60000000000001 26.6 0.0
    vertex 28.27424707819554 15.391771452281812 0.0
  endloop
endfacet
facet normal 0.0 0.0 -1.0
  outer loop
    vertex 28.27424707819554 15.391771452281812 0.0
    vertex 45.60000000000001 26.6 0.0
    vertex 28.53703641430668 14.617619031890754 0.0
  endloop
endfacet
facet normal 0.0 0.0 -1.0
  outer loop
    vertex 28.53703641430668 14.617619031890754 0.0
    vertex 45.60000000000001 26.6 0.0
    vertex 28.696530383586314 13.815788701375322 0.0
  endloop
endfacet
facet normal 0.0 0.0 -1.0
  outer loop
    vertex 28.696530383586314 13.815788701375322 0.0
    vertex 45.60000000000001 26.6 0.0
    vertex 28.750000000000004 12.999999999999998 0.0
  endloop
endfacet
facet normal 0.0 0.0 -1.0
  outer loop
    vertex -0.600000000000001 -0.5999999999999996 0.0
    vertex 20.88238096810922 6.96296358569333 0.0
    vertex 45.60000000000001 -0.5999999999999996 0.0
  endloop
endfacet
facet normal 0.0 0.0 -1.0
  outer loop
    vertex 20.88238096810922 6.96296358569333 0.0
    vertex -0.600000000000001 -0.5999999999999996 0.0
    vertex 20.108228547718166 7.225752921804467 0.0
  endloop
endfacet
facet normal 0.0 0.0 -1.0
  outer loop
    vertex 20.108228547718166 7.225752921804467 0.0
    vertex -0.600000000000001 -0.5999999999999996 0.0
    vertex 19.37499999999998 7.587341226347269 0.0
  endloop
endfacet
facet normal 0.0 0.0 -1.0
  outer loop
    vertex 19.37499999999998 7.587341226347269 0.0
    vertex -0.600000000000001 -0.5999999999999996 0.0
    vertex 18.695241068695477 8.041541623179794 0.0
  endloop
endfacet
facet normal 0.0 0.0 -1.0
  outer loop
    vertex 18.695241068695477 8.041541623179794 0.0
    vertex -0.600000000000001 -0.5999999999999996 0.0
    vertex 18.080582617584064 8.580582617584094 0.0
  endloop
endfacet
facet normal 0.0 0.0 -1.0
  outer loop
    vertex 18.080582617584064 8.580582617584094 0.0
    vertex -0.600000000000001 -0.5999999999999996 0.0
    vertex 17.541541623179768 9.195241068695513 0.0
  endloop
endfacet
facet normal 0.0 0.0 -1.0
  outer loop
    vertex 17.541541623179768 9.195241068695513 0.0
    vertex -0.600000000000001 -0.5999999999999996 0.0
    vertex 17.08734122634725 9.875000000000018 0.0
  endloop
endfacet
facet normal 0.0 0.0 -1.0
  outer loop
    vertex 17.08734122634725 9.875000000000018 0.0
    vertex -0.600000000000001 -0.5999999999999996 0.0
    vertex 16.72575292180445 10.608228547718207 0.0
  endloop
endfacet
facet normal 0.0 0.0 -1.0
  outer loop
    vertex 16.72575292180445 10.608228547718207 0.0
    vertex -0.600000000000001 -0.5999999999999996 0.0
    vertex 16.46296358569332 11.382380968109262 0.0
  endloop
endfacet
facet normal 0.0 0.0 -1.0
  outer loop
    vertex 16.46296358569332 11.382380968109262 0.0
    vertex -0.600000000000001 -0.5999999999999996 0.0
    vertex 16.303469616413683 12.184211298624694 0.0
  endloop
endfacet
facet normal 0.0 0.0 -1.0
  outer loop
    vertex 16.303469616413683 12.184211298624694 0.0
    vertex -0.600000000000001 -0.5999999999999996 0.0
    vertex 16.25 13.000000000000016 0.0
  endloop
endfacet
facet normal 0.0 0.0 -1.0
  outer loop
    vertex 45.60000000000001 -0.5999999999999996 0.0
    vertex 20.88238096810922 6.96296358569333 0.0
    vertex 21.68421129862465 6.803469616413688 0.0
  endloop
endfacet
facet normal 0.0 0.0 -1.0
  outer loop
    vertex 45.60000000000001 -0.5999999999999996 0.0
    vertex 21.68421129862465 6.803469616413688 0.0
    vertex 22.5 6.749999999999999 0.0
  endloop
endfacet
facet normal 0.0 0.0 -1.0
  outer loop
    vertex 45.60000000000001 -0.5999999999999996 0.0
    vertex 22.5 6.749999999999999 0.0
    vertex 23.315788701375325 6.803469616413684 0.0
  endloop
endfacet
facet normal 0.0 0.0 -1.0
  outer loop
    vertex 45.60000000000001 -0.5999999999999996 0.0
    vertex 23.315788701375325 6.803469616413684 0.0
    vertex 24.117619031890758 6.962963585693321 0.0
  endloop
endfacet
facet normal 0.0 0.0 -1.0
  outer loop
    vertex 45.60000000000001 -0.5999999999999996 0.0
    vertex 24.117619031890758 6.962963585693321 0.0
    vertex 24.891771452281812 7.225752921804456 0.0
  endloop
endfacet
facet normal 0.0 0.0 -1.0
  outer loop
    vertex 45.60000000000001 -0.5999999999999996 0.0
    vertex 24.891771452281812 7.225752921804456 0.0
    vertex 25.624999999999996 7.587341226347257 0.0
  endloop
endfacet
facet normal 0.0 0.0 -1.0
  outer loop
    vertex 45.60000000000001 -0.5999999999999996 0.0
    vertex 25.624999999999996 7.587341226347257 0.0
    vertex 26.30475893130451 8.041541623179778 0.0
  endloop
endfacet
facet normal 0.0 0.0 -1.0
  outer loop
    vertex 45.60000000000001 -0.5999999999999996 0.0
    vertex 26.30475893130451 8.041541623179778 0.0
    vertex 26.919417382415926 8.580582617584076 0.0
  endloop
endfacet
facet normal 0.0 0.0 -1.0
  outer loop
    vertex 45.60000000000001 -0.5999999999999996 0.0
    vertex 26.919417382415926 8.580582617584076 0.0
    vertex 27.45845837682022 9.195241068695495 0.0
  endloop
endfacet
facet normal 0.0 0.0 -1.0
  outer loop
    vertex 45.60000000000001 -0.5999999999999996 0.0
    vertex 27.45845837682022 9.195241068695495 0.0
    vertex 27.91265877365274 9.874999999999998 0.0
  endloop
endfacet
facet normal 0.0 0.0 -1.0
  outer loop
    vertex 45.60000000000001 -0.5999999999999996 0.0
    vertex 27.91265877365274 9.874999999999998 0.0
    vertex 28.27424707819554 10.608228547718188 0.0
  endloop
endfacet
facet normal 0.0 0.0 -1.0
  outer loop
    vertex 45.60000000000001 -0.5999999999999996 0.0
    vertex 28.27424707819554 10.608228547718188 0.0
    vertex 28.53703641430668 11.382380968109244 0.0
  endloop
endfacet
facet normal 0.0 0.0 -1.0
  outer loop
    vertex 45.60000000000001 -0.5999999999999996 0.0
    vertex 28.53703641430668 11.382380968109244 0.0
    vertex 28.696530383586314 12.184211298624678 0.0
  endloop
endfacet
facet normal 0.0 0.0 -1.0
  outer loop
    vertex 45.60000000000001 -0.5999999999999996 0.0
    vertex 28.696530383586314 12.184211298624678 0.0
    vertex 28.750000000000004 12.999999999999998 0.0
  endloop
endfacet
facet normal 0.0 0.0 -1.0
  outer loop
    vertex 45.60000000000001 -0.5999999999999996 0.0
    vertex 28.750000000000004 12.999999999999998 0.0
    vertex 45.60000000000001 26.6 0.0
  endloop
endfacet
facet normal -0.7071067811865479 1.1123370146166215e-33 -0.7071067811865471
  outer loop
    vertex -1.5999999999999999 27.6 0.9999999999999999
    vertex -0.600000000000001 -0.5999999999999996 0.0
    vertex -1.5999999999999999 -1.5999999999999999 0.9999999999999999
  endloop
endfacet
facet normal -0.7071067811865479 1.1123370146166215e-33 -0.7071067811865471
  outer loop
    vertex -0.600000000000001 -0.5999999999999996 0.0
    vertex -1.5999999999999999 27.6 0.9999999999999999
    vertex -0.600000000000001 26.6 0.0
  endloop
endfacet
facet normal -7.101233507707655e-19 -0.7071067811865474 -0.7071067811865477
  outer loop
    vertex -0.600000000000001 -0.5999999999999996 0.0
    vertex 46.6 -1.5999999999999999 0.9999999999999999
    vertex -1.5999999999999999 -1.5999999999999999 0.9999999999999999
  endloop
endfacet
facet normal -7.101233507707655e-19 -0.7071067811865474 -0.7071067811865477
  outer loop
    vertex 46.6 -1.5999999999999999 0.9999999999999999
    vertex -0.600000000000001 -0.5999999999999996 0.0
    vertex 45.60000000000001 -0.5999999999999996 0.0
  endloop
endfacet
facet normal 0.7071067811865481 9.938908677860427e-19 -0.7071067811865469
  outer loop
    vertex 45.60000000000001 -0.5999999999999996 0.0
    vertex 46.6 27.6 0.9999999999999999
    vertex 46.6 -1.5999999999999999 0.9999999999999999
  endloop
endfacet
facet normal 0.7071067811865481 9.938908677860427e-19 -0.7071067811865469
  outer loop
    vertex 46.6 27.6 0.9999999999999999
    vertex 45.60000000000001 -0.5999999999999996 0.0
    vertex 45.60000000000001 26.6 0.0
  endloop
endfacet
facet normal 1.2914715635418428e-33 0.7071067811865481 -0.7071067811865469
  outer loop
    vertex -1.5999999999999999 27.6 0.9999999999999999
    vertex 45.60000000000001 26.6 0.0
    vertex -0.600000000000001 26.6 0.0
  endloop
endfacet
facet normal 1.2914715635418428e-33 0.7071067811865481 -0.7071067811865469
  outer loop
    vertex 45.60000000000001 26.6 0.0
    vertex -1.5999999999999999 27.6 0.9999999999999999
    vertex 46.6 27.6 0.9999999999999999
  endloop
endfacet
endsolid powerSwitch
